<svg preserveAspectRatio="xMidYMid meet" viewBox="163.8981173864895 385.58399999999995 193.79844961240312 73.128" xmlns="http://www.w3.org/2000/svg" version="1.0" style="max-height: 500px" width="193.79844961240312" height="73.128">

<g stroke="none" fill="#000000" transform="translate(0.000000,554.000000) scale(0.100000,-0.100000)">
<path d="M5127 5285 c-47 -88 -55 -106 -63 -152 -3 -15 -10 -33 -16 -40 -6 -7&#10;-7 -13 -2 -13 5 0 38 44 74 98 l65 97 5 -535 c3 -294 9 -541 13 -548 5 -7 12&#10;-10 16 -7 5 2 12 -10 16 -28 l7 -32 9 35 c10 41 9 433 -2 635 -5 77 -11 187&#10;-14 245 -5 102 -15 173 -29 215 -4 11 12 -16 36 -61 51 -95 75 -130 84 -121 4&#10;3 15 2 26 -4 18 -10 19 -8 13 13 -12 36 -95 209 -122 251 -16 26 -30 37 -47&#10;37 -20 0 -32 -14 -69 -85z"/>
<path d="M4330 5073 c0 -339 15 -671 36 -765 21 -98 20 -107 -12 -77 -14 13&#10;-33 36 -41 50 -8 14 -35 38 -59 53 -24 15 -48 35 -54 44 -5 10 -10 12 -10 6 0&#10;-6 38 -65 83 -130 74 -105 87 -119 116 -122 31 -3 32 -2 86 110 57 119 76 178&#10;56 178 -6 0 -11 10 -11 22 0 33 -13 15 -68 -95 l-49 -98 -6 278 c-4 153 -7&#10;373 -7 489 0 219 -6 307 -21 298 -5 -3 -13 6 -19 20 -5 14 -12 26 -15 26 -3 0&#10;-5 -129 -5 -287z"/>
<path d="M8805 5332 c-236 -70 -380 -274 -379 -537 0 -174 58 -311 183 -436&#10;84 -84 164 -131 291 -170 97 -30 289 -33 390 -6 104 27 222 92 300 164 64 60&#10;130 137 102 119 -18 -11 -15 0 23 70 45 83 45 93 -2 24 -51 -78 -167 -188&#10;-243 -233 -252 -147 -600 -123 -794 54 -190 174 -242 459 -124 681 62 118 194&#10;208 331 227 242 34 457 -132 457 -353 0 -127 -55 -234 -155 -301 -60 -40 -60&#10;-40 -155 -39 -107 1 -151 17 -206 76 -51 54 -68 95 -68 171 0 50 -2 62 -9 45&#10;-10 -28 -1 -109 18 -154 21 -52 91 -120 148 -145 40 -18 70 -24 132 -24 71 0&#10;88 4 147 33 120 59 185 162 196 309 12 181 -97 345 -277 414 -78 30 -224 35&#10;-306 11z m875 -875 c0 -2 -10 -12 -22 -23 l-23 -19 19 23 c18 21 26 27 26 19z"/>
<path d="M1610 5301 c0 -6 -10 -11 -22 -11 -22 0 -22 0 -3 -13 11 -7 56 -29&#10;100 -48 140 -60 142 -62 45 -55 -144 11 -853 15 -1085 6 -250 -9 -407 -30&#10;-375 -50 8 -5 2 -10 -19 -15 -58 -12 -34 -26 37 -21 165 13 255 17 705 31 263&#10;8 483 13 488 10 4 -3 60 1 123 10 64 9 141 15 172 13 l56 -3 -68 -34 c-57 -29&#10;-126 -76 -179 -124 -11 -10 25 4 205 78 121 49 125 52 128 83 3 32 2 33 -113&#10;88 -114 55 -195 78 -195 55z"/>
<path d="M3040 5203 c-99 -17 -310 -96 -310 -115 0 -4 8 -5 18 -1 9 3 -9 -11&#10;-40 -32 -32 -20 -58 -38 -58 -41 0 -2 24 6 53 18 264 106 451 137 605 97 94&#10;-24 151 -57 223 -128 93 -94 160 -241 175 -382 15 -150 -58 -347 -183 -495&#10;-131 -154 -359 -364 -395 -364 -4 0 16 37 46 83 61 94 83 147 65 158 -7 4 -9&#10;14 -6 23 4 9 2 16 -3 16 -5 0 -34 -41 -65 -90 -30 -50 -78 -123 -106 -162 -39&#10;-54 -49 -76 -45 -94 8 -29 22 -30 166 -5 79 14 122 27 175 56 39 20 62 34 53&#10;31 -32 -10 -237 -38 -258 -34 -15 2 9 22 88 74 487 324 645 725 436 1102 -76&#10;136 -206 239 -350 277 -54 14 -221 19 -284 8z"/>
<path d="M7824 5070 c-72 -60 -69 -57 -99 -103 -25 -37 -25 -38 -2 -26 12 7&#10;49 30 81 52 32 22 55 33 50 26 -59 -99 -380 -505 -461 -585 -108 -106 -224&#10;-134 -329 -81 -58 30 -156 129 -210 212 -21 33 -69 125 -107 205 -82 173 -129&#10;240 -190 269 -51 25 -129 28 -179 7 -123 -52 -265 -217 -364 -424 -47 -99 -53&#10;-119 -27 -87 l16 20 -8 -20 c-8 -23 -35 -118 -35 -125 0 -3 27 46 60 107 149&#10;284 307 461 425 478 89 14 137 -37 253 -269 163 -326 314 -467 489 -453 93 7&#10;145 37 254 146 84 85 154 177 258 341 12 19 54 85 94 145 l72 110 3 -60 c3&#10;-76 10 -107 22 -100 6 4 13 -1 16 -9 15 -40 24 6 24 123 0 125 -1 128 -24 139&#10;-21 9 -30 5 -82 -38z"/>
<path d="M457 4750 c-19 -72 4 -667 30 -760 22 -81 26 -110 15 -110 -5 0 -34&#10;26 -64 58 -29 32 -69 67 -88 77 -19 11 -44 27 -55 35 -26 20 -21 13 95 -132&#10;70 -89 99 -118 116 -118 17 0 38 22 87 93 35 50 69 102 76 115 13 24 6 82 -10&#10;82 -5 0 -34 -36 -65 -80 -30 -44 -60 -82 -65 -85 -5 -4 -9 141 -10 367 -1 364&#10;-5 437 -22 427 -5 -2 -14 9 -21 26 l-12 30 -7 -25z"/>
<path d="M9708 4662 c-57 -48 -129 -132 -113 -132 3 0 43 25 90 55 l85 55 0&#10;-78 c0 -89 7 -122 25 -122 7 0 15 -6 18 -12 13 -37 22 19 22 138 0 109 -3 137&#10;-15 144 -27 17 -44 10 -112 -48z"/>
<path d="M2720 4610 c-14 -4 -41 -9 -60 -10 -34 -2 -34 -2 -9 -10 15 -4 69&#10;-11 120 -15 l94 -8 -140 -32 c-77 -19 -282 -77 -455 -130 -452 -140 -521 -157&#10;-665 -162 -97 -4 -124 -2 -140 11 -29 21 -14 41 79 102 129 85 175 140 157&#10;187 -22 57 -146 66 -296 22 -105 -31 -291 -115 -275 -125 7 -4 -9 -20 -37 -38&#10;-26 -18 -45 -32 -42 -32 3 0 64 23 135 51 211 83 388 125 440 105 15 -6 15 -8&#10;-2 -28 -11 -11 -55 -45 -100 -73 -120 -78 -157 -130 -134 -185 32 -77 188 -88&#10;425 -29 103 25 580 179 710 228 307 117 359 133 256 76 -72 -39 -113 -73 -105&#10;-87 3 -5 0 -16 -8 -25 -11 -14 -10 -15 12 -8 33 10 189 89 263 133 50 29 58&#10;38 55 61 l-3 26 -125 2 c-69 1 -136 -2 -150 -7z"/>
<path d="M8520 3929 c0 -4 24 -36 53 -70 28 -34 59 -71 67 -82 14 -20 14 -20&#10;-5 -13 -74 32 -257 89 -345 108 -89 19 -135 22 -305 22 -223 0 -337 -17 -484&#10;-74 -81 -32 -193 -101 -174 -107 8 -3 6 -11 -7 -26 -11 -11 -18 -22 -16 -24 2&#10;-3 37 12 77 33 100 50 247 99 355 119 188 34 487 29 629 -10 28 -7 97 -21 154&#10;-30 122 -19 150 -29 103 -40 -17 -3 -36 -4 -41 -1 -8 5 -121 -39 -121 -47 0&#10;-1 64 -2 141 -2 136 0 142 1 156 22 15 22 13 26 -32 79 -102 119 -138 151&#10;-173 151 -17 0 -32 -4 -32 -8z"/>
<path d="M5932 3905 c-147 -34 -282 -107 -389 -211 -43 -42 -70 -71 -60 -64&#10;25 18 21 3 -11 -39 -16 -20 -39 -54 -52 -76 -18 -30 -2 -16 64 52 102 107 153&#10;147 251 196 214 107 456 123 670 46 265 -96 425 -310 425 -567 0 -206 -94&#10;-378 -248 -454 -63 -31 -72 -33 -177 -33 -93 0 -118 4 -158 22 -77 36 -123 78&#10;-156 145 -86 172 19 369 196 368 100 -1 163 -62 163 -157 0 -71 -19 -107 -69&#10;-127 -79 -31 -151 11 -151 90 0 70 62 105 120 68 l25 -16 -24 21 c-47 42 -113&#10;18 -130 -46 -13 -47 7 -96 51 -123 94 -57 208 18 208 137 0 120 -80 193 -211&#10;193 -72 0 -113 -16 -167 -64 -77 -70 -109 -196 -78 -309 63 -232 348 -335 594&#10;-215 168 83 276 279 276 503 0 181 -58 319 -190 451 -69 70 -96 89 -185 132&#10;-57 28 -131 58 -164 67 -84 23 -338 29 -423 10z"/>
<path d="M1874 3816 l-21 -15 37 -138 c35 -136 56 -190 67 -179 4 3 15 -1 25&#10;-11 17 -15 18 -15 18 3 0 10 -9 55 -20 98 -11 44 -19 81 -17 83 7 6 115 -154&#10;160 -237 56 -104 127 -293 167 -443 33 -126 70 -334 70 -395 0 -22 9 -84 20&#10;-139 11 -54 20 -123 19 -153 l-1 -55 -28 58 c-16 32 -49 82 -75 110 l-47 52&#10;17 -40 c9 -22 37 -91 61 -154 24 -63 45 -115 46 -117 2 -1 15 -5 30 -9 26 -7&#10;29 -3 86 112 61 121 88 193 71 193 -5 0 -9 10 -9 21 0 39 -29 2 -84 -109 l-52&#10;-104 -1 170 c-1 93 -6 214 -13 268 -45 404 -191 797 -351 949 -24 23 -39 32&#10;-36 22 5 -14 0 -12 -27 8 -29 22 -66 85 -50 85 3 0 32 -13 65 -30 33 -16 82&#10;-31 112 -34 28 -2 61 -7 72 -11 11 -4 -36 23 -105 60 -69 36 -135 73 -147 81&#10;-28 18 -34 18 -59 0z"/>
<path d="M9136 3762 c-15 -18 -14 -26 18 -130 32 -108 61 -170 73 -158 4 3 12&#10;1 20 -6 7 -6 16 -9 18 -6 4 4 -32 143 -50 196 -5 14 3 10 46 -21 23 -16 29&#10;-17 48 -6 11 8 21 19 21 25 0 13 -40 42 -80 60 -22 10 -16 12 50 19 41 4 91&#10;13 110 21 19 7 44 15 55 17 11 3 -55 5 -146 6 -149 1 -168 -1 -183 -17z"/>
<path d="M475 3695 c-46 -45 -19 -115 44 -115 40 0 62 31 51 72 -8 27 -7 28 7&#10;16 15 -12 15 -11 4 9 -25 47 -70 55 -106 18z"/>
<path d="M5357 3700 c-7 -24 -37 -261 -37 -287 0 -8 11 -18 24 -25 21 -9 41&#10;-4 131 32 124 50 167 77 172 108 4 31 -11 29 -137 -23 -60 -25 -114 -45 -120&#10;-45 -7 0 -10 29 -9 83 2 97 -14 198 -24 157z"/>
<path d="M4622 3516 c94 -94 138 -147 188 -227 111 -180 194 -388 220 -557 6&#10;-37 16 -87 22 -112 24 -99 30 -138 34 -205 l4 -70 -27 51 c-26 48 -123 166&#10;-110 134 3 -8 28 -71 55 -140 47 -117 52 -125 78 -128 28 -3 32 3 87 113 60&#10;121 65 139 43 168 -17 22 -22 16 -73 -83 l-38 -75 -6 145 c-4 80 -12 177 -19&#10;215 -48 295 -182 580 -363 772 -60 64 -176 142 -152 102 4 -5 -10 -3 -29 5&#10;-31 13 -16 -5 86 -108z"/>
<path d="M9411 3536 c-9 -11 -6 -18 18 -35 36 -26 43 -26 66 -1 18 20 18 21&#10;-1 35 -24 18 -68 19 -83 1z"/>
<path d="M7246 3398 c-13 -18 -13 -24 -2 -37 7 -9 43 -52 80 -96 37 -44 75&#10;-84 84 -90 22 -12 72 -15 72 -4 0 4 -23 36 -51 70 -29 34 -48 60 -43 57 327&#10;-155 608 -177 974 -76 63 17 132 42 152 55 21 12 41 23 46 23 4 0 24 12 43 26&#10;19 14 52 35 74 45 60 28 24 23 -40 -6 -79 -34 -256 -91 -346 -109 -196 -40&#10;-382 -44 -549 -10 -62 13 -283 81 -354 110 -15 6 -17 4 -11 -6 6 -10 4 -12 -9&#10;-7 -10 4 -23 7 -29 7 -7 0 -6 4 3 10 8 5 35 10 60 10 25 0 69 8 98 18 l53 19&#10;-98 6 c-167 11 -190 10 -207 -15z"/>
<path d="M9583 3403 c-21 -8 -15 -20 24 -43 l36 -21 20 20 c17 17 18 22 7 35&#10;-12 15 -61 20 -87 9z"/>
<path d="M725 3340 c-71 -10 -185 -36 -193 -44 -3 -3 3 -6 14 -7 10 0 -8 -11&#10;-41 -24 -72 -28 -56 -31 56 -8 120 24 377 24 482 0 147 -35 277 -109 384 -219&#10;103 -105 135 -221 92 -333 -64 -171 -324 -315 -568 -315 -251 0 -444 64 -560&#10;184 -38 39 -35 42 19 25 38 -13 165 -19 153 -8 -11 9 -215 89 -227 89 -6 0&#10;-19 -7 -29 -14 -17 -13 -17 -18 -2 -107 16 -89 40 -157 52 -145 4 3 12 1 20&#10;-5 10 -9 13 -4 13 27 0 22 -5 59 -11 83 -5 24 -7 46 -5 49 3 2 31 -19 63 -47&#10;66 -59 206 -132 303 -158 101 -27 320 -24 425 5 180 51 327 157 396 284 32 58&#10;34 69 34 153 0 125 -27 179 -149 300 -108 108 -222 172 -369 210 -105 26 -263&#10;38 -352 25z"/>
<path d="M3927 3266 c-23 -18 -16 -23 108 -83 l100 -48 -545 -6 c-300 -3 -547&#10;-6 -549 -7 -2 -1 -1 -8 2 -16 4 -9 -5 -16 -26 -21 -31 -8 -31 -8 18 -17 98&#10;-17 885 8 1010 33 119 24 116 25 65 -20 -58 -52 -54 -48 -97 -106 -36 -49 -36&#10;-49 -7 -31 68 44 223 157 229 167 4 5 4 20 1 32 -4 16 -37 37 -129 80 -129 60&#10;-151 65 -180 43z"/>
<path d="M9763 3263 c-21 -8 -15 -20 23 -44 l36 -22 21 21 c17 17 18 23 7 36&#10;-12 15 -61 20 -87 9z"/>
<path d="M8977 2914 c-127 -20 -199 -40 -307 -86 -154 -65 -252 -142 -286&#10;-224 -18 -44 -18 -125 1 -170 76 -182 429 -329 745 -310 128 8 230 31 373 85&#10;60 23 111 41 114 41 4 0 -3 -10 -14 -22 -30 -34 -47 -68 -32 -68 6 0 9 -9 6&#10;-20 -3 -11 -2 -20 3 -20 13 0 170 170 170 184 0 7 -6 20 -13 30 -13 18 -18 18&#10;-116 2 -63 -10 -120 -25 -149 -41 l-47 -25 110 6 c127 6 125 0 -16 -46 -198&#10;-65 -433 -80 -628 -40 -271 55 -461 188 -461 322 0 61 16 93 73 145 114 105&#10;363 188 622 207 131 10 445 -24 585 -64 33 -9 34 -8 15 6 l-20 16 20 -5 c11&#10;-3 38 -9 60 -13 22 -4 48 -11 59 -16 12 -7 16 -7 12 0 -9 15 -147 67 -244 91&#10;-197 51 -446 64 -635 35z"/>
<path d="M6864 2452 c3 -5 -4 -13 -17 -16 l-22 -7 26 -14 c14 -7 68 -26 119&#10;-40 52 -15 101 -30 108 -34 7 -4 -38 -13 -100 -20 -592 -64 -1073 -315 -1219&#10;-636 -33 -73 -35 -82 -14 -65 12 10 13 7 5 -22 -20 -67 -9 -61 39 24 58 103&#10;71 121 162 215 84 87 226 184 370 253 128 61 348 134 461 154 46 8 106 22 133&#10;30 141 41 166 47 202 44 l38 -3 -60 -35 c-32 -19 -80 -56 -105 -81 -26 -26&#10;-57 -52 -69 -58 -12 -7 -20 -15 -17 -18 6 -6 313 160 333 180 6 7 9 23 7 37&#10;-5 23 -18 29 -152 67 -156 45 -238 61 -228 45z"/>
<path d="M3080 2362 c-127 -64 -135 -70 -135 -97 0 -27 8 -34 85 -76 47 -26&#10;103 -50 125 -54 22 -4 48 -11 58 -17 44 -23 9 7 -75 64 l-93 63 525 6 c491 5&#10;577 10 565 29 -3 4 7 11 23 15 l27 8 -25 7 c-38 12 -374 11 -670 -1 -229 -9&#10;-325 -19 -440 -44 -14 -3 16 15 65 41 98 50 128 72 119 86 -3 5 0 15 6 23 26&#10;32 -27 14 -160 -53z"/>
<path d="M7907 2358 c-85 -96 -287 -357 -417 -538 -29 -41 -70 -97 -91 -125&#10;-20 -27 -54 -83 -74 -123 -20 -40 -39 -72 -41 -70 -2 2 5 41 16 87 25 104 25&#10;146 1 173 l-20 20 -15 -53 c-20 -69 -56 -238 -56 -264 0 -11 9 -26 19 -32 16&#10;-10 33 -6 99 22 44 19 84 35 89 35 4 0 25 16 46 35 21 19 46 35 55 36 9 0 12&#10;3 6 5 -6 3 -53 -9 -105 -25 -51 -17 -94 -29 -96 -27 -2 1 52 72 119 158 68 85&#10;204 256 303 381 182 230 256 338 215 312 -6 -4 -6 3 0 21 6 15 9 29 6 31 -2 2&#10;-29 -24 -59 -59z"/>
<path d="M208 2353 c7 -3 16 -2 19 1 4 3 -2 6 -13 5 -11 0 -14 -3 -6 -6z"/>
<path d="M187 2324 c-8 -8 1 -24 14 -24 5 0 9 7 9 15 0 15 -12 20 -23 9z"/>
<path d="M230 2315 c0 -9 9 -15 21 -15 18 0 19 2 9 15 -7 8 -16 15 -21 15 -5&#10;0 -9 -7 -9 -15z"/>
<path d="M255 2260 c-3 -5 -1 -10 4 -10 6 0 11 5 11 10 0 6 -2 10 -4 10 -3 0&#10;-8 -4 -11 -10z"/>
<path d="M250 2156 c0 -2 7 -7 16 -10 8 -3 12 -2 9 4 -6 10 -25 14 -25 6z"/>
<path d="M208 2143 c7 -3 16 -2 19 1 4 3 -2 6 -13 5 -11 0 -14 -3 -6 -6z"/>
<path d="M187 2114 c-8 -8 1 -24 14 -24 5 0 9 7 9 15 0 15 -12 20 -23 9z"/>
<path d="M230 2105 c0 -9 9 -15 21 -15 18 0 19 2 9 15 -7 8 -16 15 -21 15 -5&#10;0 -9 -7 -9 -15z"/>
<path d="M255 2050 c-3 -5 -1 -10 4 -10 6 0 11 5 11 10 0 6 -2 10 -4 10 -3 0&#10;-8 -4 -11 -10z"/>
<path d="M190 2011 c0 -6 5 -13 10 -16 6 -3 10 1 10 9 0 9 -4 16 -10 16 -5 0&#10;-10 -4 -10 -9z"/>
<path d="M235 2000 c-4 -6 -3 -16 3 -22 6 -6 12 -6 17 2 4 6 3 16 -3 22 -6 6&#10;-12 6 -17 -2z"/>
<path d="M1440 1950 c0 -5 -7 -10 -15 -10 -36 0 -8 -24 81 -68 113 -56 109&#10;-59 -68 -61 -124 -1 -148 -5 -148 -26 0 -7 -6 -15 -12 -18 -60 -21 171 -27&#10;281 -7 35 6 65 9 68 6 3 -2 -13 -17 -36 -31 -22 -15 -43 -36 -46 -46 -4 -11&#10;-11 -19 -16 -19 -5 0 -9 -6 -9 -14 0 -8 -10 -22 -22 -30 -12 -9 -20 -18 -17&#10;-20 2 -3 61 35 129 83 172 120 172 122 8 200 -127 62 -178 79 -178 61z"/>
<path d="M213 1923 c15 -2 37 -2 50 0 12 2 0 4 -28 4 -27 0 -38 -2 -22 -4z"/>
<path d="M4625 1857 c-158 -75 -229 -326 -145 -515 11 -25 20 -46 20 -48 0&#10;-11 -68 -1 -123 17 -188 63 -330 199 -354 341 -7 42 -7 42 -13 13 -5 -24 -8&#10;-17 -14 38 -5 37 -6 82 -2 100 4 26 4 28 -5 14 -6 -10 -13 -51 -16 -91 -8 -98&#10;20 -191 81 -274 88 -118 272 -218 426 -229 57 -5 78 -11 88 -24 40 -57 212&#10;-163 333 -205 102 -35 294 -37 415 -4 114 31 296 91 291 96 -2 3 -38 -7 -80&#10;-21 -135 -45 -214 -58 -357 -59 -98 0 -153 4 -200 17 -96 25 -241 100 -301&#10;155 l-52 48 56 28 c88 43 161 115 204 204 36 73 38 80 38 176 0 86 -3 107 -23&#10;143 -49 93 -166 128 -267 80z m170 -61 c42 -28 60 -73 60 -156 -1 -134 -79&#10;-260 -197 -320 -82 -41 -92 -39 -116 18 -48 112 -54 192 -22 294 22 72 83 151&#10;135 174 37 17 106 12 140 -10z"/>
<path d="M186 1822 c-3 -6 -1 -14 5 -17 15 -10 25 3 12 16 -7 7 -13 7 -17 1z"/>
<path d="M232 1813 c2 -10 10 -18 18 -18 22 0 18 29 -3 33 -14 3 -18 -1 -15&#10;-15z"/>
<path d="M284 1795 c-6 -14 -19 -20 -43 -20 -19 0 -36 -6 -38 -12 -3 -8 5 -13&#10;22 -13 14 0 35 -5 45 -10 10 -6 21 -6 24 -2 2 4 22 9 43 10 77 5 151 25 179&#10;48 l29 24 -126 -3 c-115 -2 -127 -4 -135 -22z"/>
<path d="M863 1811 c-56 -3 -103 -8 -106 -11 -2 -3 -8 -15 -11 -27 -6 -20 -4&#10;-23 21 -24 110 -6 228 11 276 39 56 33 42 35 -180 23z"/>
<path d="M187 1714 c-13 -14 6 -24 41 -23 28 1 31 3 12 6 -14 3 -30 9 -36 14&#10;-6 5 -14 6 -17 3z"/>
<path d="M8193 1641 c-34 -33 -69 -74 -79 -93 -9 -18 -22 -36 -28 -40 -8 -6&#10;-8 -8 0 -8 6 0 41 23 78 50 36 28 66 49 66 47 0 -2 -23 -53 -51 -112 -134&#10;-284 -240 -639 -265 -887 l-7 -68 -36 -1 c-29 0 -32 -2 -16 -9 15 -7 10 -9&#10;-25 -10 -86 -3 -90 -17 -7 -24 l77 -8 0 -53 c0 -132 42 -215 132 -261 63 -33&#10;154 -37 205 -11 122 64 101 229 -41 312 -41 23 -118 48 -188 60 -35 5 -38 9&#10;-38 38 0 105 62 400 125 597 24 74 51 158 60 185 8 28 22 74 30 103 8 29 27&#10;76 42 105 l28 52 3 -50 c3 -62 22 -136 33 -130 4 3 10 1 14 -5 3 -5 11 -10 17&#10;-10 11 0 3 224 -9 258 -18 48 -47 41 -120 -27z m-118 -1198 c112 -34 175 -92&#10;175 -160 0 -84 -117 -111 -212 -48 -48 32 -64 67 -74 164 l-7 73 34 -7 c19 -3&#10;57 -13 84 -22z"/>
<path d="M9560 1680 c0 -5 -7 -10 -15 -10 -31 0 -12 -21 68 -77 l82 -58 -53&#10;-3 c-47 -3 -54 -6 -63 -29 -7 -19 -6 -29 3 -35 13 -9 69 -5 118 8 19 6 9 -8&#10;-42 -59 -38 -36 -68 -71 -68 -78 0 -7 -10 -24 -22 -37 -40 -43 6 -12 127 85&#10;148 119 149 125 25 211 -96 67 -160 100 -160 82z"/>
<path d="M245 1650 c3 -5 10 -10 16 -10 5 0 9 5 9 10 0 6 -7 10 -16 10 -8 0&#10;-12 -4 -9 -10z"/>
<path d="M3319 1635 c-3 -2 -48 -16 -99 -29 -112 -30 -172 -55 -167 -70 2 -6&#10;-3 -16 -12 -23 -26 -20 32 -16 114 6 38 11 71 18 73 16 8 -7 -198 -157 -297&#10;-216 -198 -118 -401 -196 -616 -235 -77 -14 -152 -18 -327 -19 -124 0 -224 -3&#10;-222 -7 3 -5 -14 -8 -38 -8 -31 -1 -39 -3 -27 -10 55 -32 296 -53 457 -39 298&#10;26 532 107 808 282 97 61 138 95 208 171 51 55 101 99 119 105 16 6 32 10 33&#10;8 2 -1 -1 -34 -6 -72 -13 -105 -17 -208 -7 -190 18 32 45 124 63 212 18 92 18&#10;93 -1 108 -20 14 -47 19 -56 10z"/>
<path d="M185 1560 c-6 -10 85 -54 93 -45 3 3 1 5 -5 5 -6 0 -26 11 -46 25&#10;-20 13 -39 20 -42 15z"/>
<path d="M8755 1515 c-3 -8 -7 -22 -10 -30 -12 -40 80 -28 128 15 l32 29 -73&#10;1 c-56 0 -74 -3 -77 -15z"/>
<path d="M9030 1504 c-12 -31 -6 -44 20 -44 33 0 100 31 111 51 9 18 5 19 -56&#10;19 -61 0 -66 -2 -75 -26z"/>
<path d="M9300 1504 c-6 -14 -8 -30 -4 -35 15 -24 104 1 138 40 l19 21 -72 0&#10;c-68 0 -72 -1 -81 -26z"/>
<path d="M210 1450 c0 -5 4 -10 9 -10 6 0 13 5 16 10 3 6 -1 10 -9 10 -9 0&#10;-16 -4 -16 -10z"/>
<path d="M250 1440 c0 -5 5 -10 10 -10 6 0 10 5 10 10 0 6 -4 10 -10 10 -5 0&#10;-10 -4 -10 -10z"/>
<path d="M258 1403 c7 -3 16 -2 19 1 4 3 -2 6 -13 5 -11 0 -14 -3 -6 -6z"/>
<path d="M6491 1328 c11 -21 145 -197 159 -208 3 -3 24 -27 45 -55 147 -185&#10;419 -487 492 -545 36 -29 63 -54 60 -56 -2 -3 -26 1 -53 7 -50 12 -194 18&#10;-194 8 0 -3 65 -24 145 -47 202 -59 205 -57 160 133 -25 106 -51 172 -62 161&#10;-4 -3 -12 -1 -20 6 -7 6 -16 9 -19 6 -5 -5 41 -230 52 -252 3 -6 -9 7 -28 29&#10;-67 81 -397 484 -498 609 -122 153 -180 212 -190 195 -6 -8 -9 -8 -14 0 -4 6&#10;-16 16 -27 22 -19 10 -20 9 -8 -13z"/>
<path d="M635 1251 c-38 -11 -87 -27 -108 -35 -69 -30 -174 -104 -195 -138&#10;-25 -41 -62 -76 -62 -60 0 7 -7 12 -15 12 -8 0 -15 -4 -15 -10 0 -5 7 -10 15&#10;-10 8 0 19 -8 24 -18 9 -17 17 -12 79 48 226 222 608 226 845 10 37 -34 67&#10;-56 67 -48 1 7 12 0 26 -17 25 -29 25 -29 19 -5 -32 110 -144 203 -320 265&#10;-77 28 -270 31 -360 6z"/>
<path d="M230 1179 c0 -5 5 -7 10 -4 6 3 10 8 10 11 0 2 -4 4 -10 4 -5 0 -10&#10;-5 -10 -11z"/>
<path d="M5294 1175 c-4 -8 -12 -15 -20 -15 -25 0 -15 -18 14 -23 15 -3 94&#10;-11 176 -18 90 -8 150 -17 152 -24 3 -6 -20 -49 -51 -94 -30 -46 -55 -91 -55&#10;-100 0 -9 -5 -22 -12 -29 -7 -7 -9 -12 -5 -12 4 0 1 -16 -7 -35 -8 -19 -13&#10;-35 -11 -35 2 0 23 28 46 63 24 34 75 105 116 158 108 140 105 145 -83 164&#10;-187 19 -253 19 -260 0z"/>
<path d="M260 1160 c-12 -8 -11 -10 8 -10 12 0 22 5 22 10 0 13 -11 13 -30 0z"/>
<path d="M183 1153 c9 -2 23 -2 30 0 6 3 -1 5 -18 5 -16 0 -22 -2 -12 -5z"/>
<path d="M220 1076 c0 -19 13 -27 28 -17 8 4 5 11 -8 19 -16 10 -20 10 -20 -2z"/>
<path d="M166 1033 c-4 -10 -4 -46 0 -80 6 -60 16 -77 28 -50 5 10 7 10 12 0&#10;3 -7 18 -13 34 -13 16 0 30 6 33 13 2 6 8 9 12 5 17 -16 -5 -38 -39 -38 -19 0&#10;-37 -6 -39 -12 -4 -10 -8 -9 -16 2 -15 22 -20 9 -14 -39 l6 -43 24 31 c14 17&#10;33 31 43 31 22 0 87 71 96 105 3 14 11 25 17 25 6 0 8 3 4 6 -3 4 -28 -8 -55&#10;-25 -56 -36 -96 -40 -112 -12 -14 28 -13 38 11 60 l20 19 -22 16 c-29 20 -35&#10;20 -43 -1z"/>
<path d="M9748 955 c-23 -30 -46 -55 -50 -55 -5 0 -8 -5 -8 -10 0 -6 -9 -30&#10;-20 -52 -11 -23 -20 -44 -20 -47 0 -3 27 21 60 54 33 33 60 56 60 52 0 -32&#10;-222 -535 -265 -598 -35 -54 -70 -75 -103 -63 -65 23 -140 184 -207 446 -46&#10;178 -77 246 -126 272 -46 25 -79 16 -128 -35 -64 -66 -154 -273 -181 -419 -6&#10;-30 -13 -63 -16 -74 -4 -13 -3 -16 6 -11 10 6 12 -5 8 -49 -3 -31 -3 -56 -2&#10;-56 1 0 28 78 58 174 64 199 151 385 190 406 49 26 68 -7 130 -228 90 -318&#10;168 -462 265 -485 35 -9 81 14 121 59 40 47 123 218 155 323 13 42 28 90 34&#10;106 6 17 23 71 38 120 21 70 28 83 30 60 5 -50 23 -106 33 -100 5 3 13 -3 19&#10;-12 9 -17 10 -17 16 0 4 9 6 69 3 133 -3 100 -6 118 -23 130 -10 8 -22 14 -26&#10;14 -4 0 -27 -25 -51 -55z"/>
<path d="M214 977 c-3 -10 -2 -23 4 -29 13 -13 44 -7 50 11 3 9 0 11 -7 6 -7&#10;-4 -18 1 -26 11 -13 18 -14 18 -21 1z"/>
<path d="M4030 765 c-74 -12 -74 -12 -36 -20 22 -4 92 -15 157 -24 118 -16&#10;154 -32 89 -38 -135 -14 -340 -88 -688 -249 -431 -200 -552 -244 -702 -251&#10;-83 -5 -98 -3 -119 14 -22 18 -22 21 -9 53 9 20 57 73 113 125 152 139 190&#10;219 129 276 -37 35 -147 39 -241 9 -67 -21 -202 -87 -239 -115 -18 -15 -18&#10;-15 1 -9 26 9 13 -4 -44 -45 -24 -17 -41 -31 -37 -31 4 0 60 24 124 54 64 29&#10;149 64 187 77 75 25 186 32 205 13 26 -26 -31 -102 -140 -189 -80 -64 -121&#10;-121 -127 -178 -7 -59 27 -100 97 -117 77 -19 228 9 395 72 85 32 612 282 885&#10;419 52 25 175 61 201 57 20 -3 14 -12 -50 -86 -39 -45 -71 -86 -72 -90 -1 -4&#10;-2 -24 -3 -44 -2 -33 -1 -35 14 -25 20 15 173 186 219 245 28 37 32 47 23 66&#10;-9 21 -19 24 -122 30 -61 4 -117 8 -123 10 -7 2 -46 -2 -87 -9z"/>
<path d="M250 655 c0 -15 4 -24 10 -20 6 3 10 12 10 20 0 8 -4 17 -10 20 -6 4&#10;-10 -5 -10 -20z"/>
<path d="M215 661 c-3 -5 -1 -12 5 -16 5 -3 10 1 10 9 0 18 -6 21 -15 7z"/>
<path d="M6172 651 l-23 -6 28 -26 c15 -15 51 -44 78 -64 l50 -38 -41 6 c-108&#10;17 -299 28 -389 22 -298 -20 -587 -111 -789 -248 -67 -45 -148 -126 -140 -139&#10;3 -4 -5 -22 -17 -40 -28 -38 -17 -33 86 48 204 157 439 257 730 310 130 23&#10;577 31 606 10 20 -13 18 -15 -34 -30 -30 -9 -59 -16 -65 -16 -5 0 -27 -13 -48&#10;-28 -22 -16 -46 -32 -54 -36 -17 -7 8 -3 173 28 116 22 136 32 137 66 0 25&#10;-244 200 -263 189 -1 -1 -12 -4 -25 -8z"/>
<path d="M245 600 c-3 -5 1 -10 9 -10 9 0 16 5 16 10 0 6 -4 10 -9 10 -6 0&#10;-13 -4 -16 -10z"/>
<path d="M1213 558 c-45 -48 -91 -118 -76 -118 4 0 30 18 59 40 60 45 54 48&#10;69 -40 7 -45 14 -56 44 -65 l24 -7 -6 108 c-4 88 -8 110 -23 121 -28 20 -36&#10;17 -91 -39z"/>
<path d="M214 548 c-9 -14 1 -20 30 -16 l26 3 -25 12 c-16 7 -27 8 -31 1z"/>
<path d="M231 497 c2 -2 17 -11 32 -21 27 -17 28 -17 15 4 -7 11 -21 20 -32&#10;20 -11 0 -17 -1 -15 -3z"/>
<path d="M1221 467 c-28 -46 -126 -138 -182 -170 -222 -130 -540 -107 -720 52&#10;-30 26 -57 41 -80 43 -29 2 -36 9 -47 38 -8 22 -11 26 -9 10 3 -14 8 -33 12&#10;-42 5 -13 2 -18 -11 -19 -11 -1 8 -7 41 -13 50 -10 61 -15 63 -34 2 -14 -7&#10;-31 -24 -47 -28 -26 -26 -32 7 -15 15 9 26 6 49 -10 44 -32 148 -78 215 -95&#10;135 -35 335 -11 461 54 130 66 158 93 219 205 38 71 43 102 6 43z"/>
<path d="M216 434 c-7 -17 21 -31 34 -18 6 6 2 14 -9 21 -16 10 -20 9 -25 -3z"/>
<path d="M216 325 c4 -8 17 -15 30 -15 15 0 24 6 24 15 0 10 -10 15 -30 15&#10;-22 0 -28 -4 -24 -15z"/>
<path d="M195 210 c3 -5 13 -10 21 -10 8 0 14 5 14 10 0 6 -9 10 -21 10 -11 0&#10;-17 -4 -14 -10z"/>
<path d="M252 199 c2 -7 10 -15 17 -17 8 -3 12 1 9 9 -2 7 -10 15 -17 17 -8 3&#10;-12 -1 -9 -9z"/>
</g>
</svg>