<svg preserveAspectRatio="xMidYMid meet" viewBox="123.82485875706215 608 315.55367231638417 496" xmlns="http://www.w3.org/2000/svg" version="1.0" style="max-height: 500px" width="315.55367231638417" height="496">

<g stroke="none" fill="#000000" transform="translate(0.000000,2000.000000) scale(0.100000,-0.100000)">
<path d="M7696 16860 c-391 -25 -770 -122 -1131 -287 -294 -135 -340 -155&#10;-422 -183 -110 -36 -244 -54 -341 -46 -69 7 -212 50 -212 65 0 4 19 25 41 46&#10;77 74 100 174 59 255 -53 103 -190 89 -245 -25 -34 -73 -6 -169 68 -238 l42&#10;-38 -25 -20 c-49 -38 -200 -110 -301 -143 -201 -68 -407 -83 -626 -46 -206 34&#10;-318 110 -330 222 -6 56 19 114 59 137 15 9 28 20 28 24 0 5 -14 1 -31 -10&#10;-43 -25 -69 -77 -69 -138 1 -146 150 -233 457 -266 263 -28 595 54 809 202&#10;l44 30 53 -24 c71 -34 142 -47 247 -47 162 0 292 39 570 170 379 180 649 266&#10;1010 321 127 20 184 23 455 23 276 0 323 -2 425 -21 217 -41 404 -110 525&#10;-193 75 -51 181 -157 225 -222 l40 -61 -62 -41 c-88 -58 -120 -102 -126 -171&#10;-8 -96 34 -155 112 -155 51 0 96 27 126 75 20 32 22 46 18 113 -3 46 -14 96&#10;-26 123 l-20 47 86 40 c164 76 383 141 575 172 42 7 77 16 77 20 0 11 -158&#10;-16 -291 -50 -124 -31 -269 -81 -385 -135 l-71 -32 -29 46 c-44 70 -156 183&#10;-232 233 -179 120 -372 186 -632 217 -127 15 -398 20 -544 11z m-2067 -105&#10;c34 -17 71 -88 71 -135 0 -47 -32 -108 -84 -159 l-44 -44 -27 21 c-43 34 -84&#10;92 -96 135 -19 71 20 154 85 183 40 17 61 17 95 -1z m3528 -496 c40 -115 24&#10;-199 -46 -246 -48 -32 -95 -30 -131 5 -53 53 -52 141 1 205 34 41 128 109 144&#10;104 5 -2 20 -32 32 -68z"/>
<path d="M2517 12172 c-18 -19 -21 -50 -11 -89 4 -16 14 -23 30 -23 13 0 24&#10;-5 24 -12 0 -9 3 -9 12 0 7 7 20 12 30 12 37 0 52 84 20 113 -25 23 -85 22&#10;-105 -1z"/>
<path d="M3010 12027 c-32 -16 -40 -79 -14 -108 22 -24 76 -25 97 -1 20 22 22&#10;85 4 100 -22 18 -61 23 -87 9z"/>
<path d="M2208 11875 c-25 -33 -23 -77 5 -103 30 -28 58 -28 85 1 27 28 32&#10;107 7 107 -8 0 -15 5 -15 10 0 6 -15 10 -32 10 -23 -1 -38 -8 -50 -25z"/>
<path d="M2614 11696 c-12 -49 -1 -89 31 -106 28 -16 32 -16 60 0 24 13 31 24&#10;33 54 5 53 -19 76 -74 76 -37 0 -44 -3 -50 -24z"/>
<path d="M1900 11531 c-14 -27 -13 -94 2 -109 20 -20 63 -14 92 13 33 31 33&#10;55 -2 88 -33 32 -77 36 -92 8z"/>
<path d="M3174 11515 c-23 -36 -6 -94 29 -95 4 0 7 27 7 60 0 65 -10 74 -36&#10;35z"/>
<path d="M2263 11351 c-17 -14 -23 -30 -23 -60 0 -36 4 -42 35 -57 53 -25 99&#10;0 109 61 1 6 -6 24 -14 40 -21 38 -73 45 -107 16z"/>
<path d="M2762 11237 c-45 -48 -19 -127 41 -127 62 0 91 84 44 128 -30 28 -58&#10;28 -85 -1z"/>
<path d="M5090 11025 c0 -16 3 -24 8 -19 4 5 11 11 15 15 4 3 1 12 -8 19 -13&#10;11 -15 9 -15 -15z"/>
<path d="M1890 10967 c0 -36 5 -68 12 -75 15 -15 48 -16 48 -2 0 6 6 10 13 10&#10;11 0 37 43 37 63 0 5 -9 22 -21 38 -16 22 -28 29 -55 29 l-34 0 0 -63z"/>
<path d="M3162 11007 c-37 -39 -24 -96 26 -111 23 -8 23 -7 20 60 -2 37 -8 69&#10;-14 71 -5 2 -20 -7 -32 -20z"/>
<path d="M5028 10963 c-18 -21 -31 -43 -25 -43 2 0 13 14 25 30 25 33 24 41 0&#10;13z"/>
<path d="M5102 10940 c0 -14 2 -19 5 -12 2 6 2 18 0 25 -3 6 -5 1 -5 -13z"/>
<path d="M2344 10853 c-13 -30 -14 -73 -4 -94 8 -15 22 -19 58 -19 59 0 72 12&#10;72 65 0 53 -13 65 -71 65 -35 0 -49 -4 -55 -17z"/>
<path d="M5093 10805 c0 -22 2 -30 4 -17 2 12 2 30 0 40 -3 9 -5 -1 -4 -23z"/>
<path d="M5082 10730 c0 -19 2 -27 5 -17 2 9 2 25 0 35 -3 9 -5 1 -5 -18z"/>
<path d="M2874 10727 c-25 -12 -47 -58 -42 -88 4 -32 51 -63 81 -55 32 8 74&#10;63 59 78 -6 6 -8 17 -5 25 7 17 -33 53 -57 52 -8 -1 -24 -6 -36 -12z"/>
<path d="M5071 10674 c0 -11 3 -14 6 -6 3 7 2 16 -1 19 -3 4 -6 -2 -5 -13z"/>
<path d="M5061 10643 c-1 -6 -4 -20 -7 -30 -5 -17 -5 -17 6 0 6 10 9 23 6 30&#10;-3 9 -5 9 -5 0z"/>
<path d="M5015 10523 c-8 -20 -13 -38 -10 -41 3 -3 5 -3 5 0 0 3 7 22 15 42 8&#10;20 13 36 10 36 -2 0 -12 -16 -20 -37z"/>
<path d="M1970 10523 c-15 -19 -19 -35 -15 -53 11 -41 25 -50 76 -50 53 0 66&#10;13 63 63 -3 66 -83 92 -124 40z"/>
<path d="M4940 10380 c-11 -22 -18 -40 -15 -40 2 0 14 18 25 40 11 22 18 40&#10;15 40 -2 0 -14 -18 -25 -40z"/>
<path d="M2531 10341 c-12 -16 -21 -32 -21 -36 0 -4 9 -20 21 -36 16 -23 28&#10;-29 59 -29 43 0 70 29 70 78 0 39 -17 52 -66 52 -36 0 -46 -5 -63 -29z"/>
<path d="M4879 10293 c-13 -16 -12 -17 4 -4 9 7 17 15 17 17 0 8 -8 3 -21 -13z"/>
<path d="M4814 10218 l-19 -23 23 19 c21 18 27 26 19 26 -2 0 -12 -10 -23 -22z"/>
<path d="M2898 10165 c-21 -28 -22 -42 -5 -78 10 -23 18 -27 53 -27 29 0 46 6&#10;62 23 26 28 27 34 6 75 -14 28 -20 32 -57 32 -33 -1 -46 -6 -59 -25z"/>
<path d="M4744 10154 c-18 -14 -18 -15 4 -4 12 6 22 13 22 15 0 8 -5 6 -26&#10;-11z"/>
<path d="M2112 10066 c-19 -9 -22 -18 -20 -55 3 -38 8 -47 35 -62 29 -16 35&#10;-17 62 -3 27 14 31 21 31 58 0 67 -45 93 -108 62z"/>
<path d="M2521 9836 c-14 -15 -21 -33 -19 -48 3 -21 7 -23 68 -23 61 0 65 2&#10;68 23 5 32 -34 72 -68 72 -15 0 -36 -10 -49 -24z"/>
<path d="M884 8411 c-61 -28 -89 -73 -89 -143 0 -66 20 -100 81 -136 31 -18&#10;50 -22 96 -19 171 10 220 218 68 295 -54 27 -101 28 -156 3z"/>
<path d="M9233 8206 c-199 -50 -344 -211 -405 -448 l-22 -85 -72 -7 c-376 -31&#10;-746 -246 -975 -566 -77 -108 -133 -216 -117 -226 7 -4 13 -3 15 2 11 32 101&#10;179 148 240 120 157 325 324 490 400 138 64 290 106 433 120 l74 7 -8 -59 c-5&#10;-33 -8 -122 -7 -199 2 -254 69 -431 218 -581 117 -118 220 -163 372 -164 174&#10;0 338 103 394 249 55 144 26 310 -79 455 -135 185 -476 326 -789 326 -39 0&#10;-63 4 -63 11 0 34 37 145 72 219 31 63 58 102 107 151 110 110 207 145 381&#10;136 129 -7 223 -32 355 -96 189 -92 326 -201 695 -551 268 -254 356 -329 500&#10;-425 303 -203 614 -278 858 -210 l60 17 94 -55 c376 -224 843 -248 1240 -65&#10;37 17 68 37 68 44 0 20 -14 17 -78 -15 -135 -68 -305 -110 -482 -118 -195 -9&#10;-381 22 -558 94 -83 33 -242 121 -242 132 0 3 23 20 51 36 71 41 135 116 178&#10;204 30 64 36 88 39 160 3 71 0 96 -18 144 -56 149 -244 247 -390 204 -159 -46&#10;-241 -237 -180 -417 30 -88 98 -187 178 -259 36 -33 63 -63 60 -66 -3 -3 -36&#10;-12 -74 -20 -221 -47 -503 27 -769 202 -142 93 -271 203 -540 458 -263 249&#10;-380 349 -508 435 -104 69 -265 145 -363 171 -100 26 -269 34 -341 15z m2731&#10;-564 c77 -35 122 -77 157 -147 30 -61 31 -70 27 -152 -3 -75 -9 -98 -39 -158&#10;-54 -111 -203 -241 -247 -216 -7 4 -45 39 -84 77 -132 128 -184 238 -176 368&#10;11 160 113 262 254 253 33 -3 82 -14 108 -25z m-2799 -31 c307 -75 495 -212&#10;576 -418 18 -45 23 -79 23 -153 1 -88 -1 -100 -32 -162 -39 -79 -92 -129 -181&#10;-172 -62 -29 -73 -31 -181 -31 -111 0 -117 1 -190 36 -169 81 -289 242 -342&#10;458 -23 94 -30 304 -14 415 l8 59 126 -6 c71 -4 162 -15 207 -26z"/>
<path d="M1432 7038 c-7 -7 -12 -26 -12 -43 0 -39 16 -55 55 -55 39 0 55 16&#10;55 55 0 39 -16 55 -55 55 -17 0 -36 -5 -43 -12z"/>
<path d="M1776 7034 c-36 -35 -12 -94 38 -94 38 0 59 19 59 55 0 14 -6 32 -13&#10;40 -16 20 -64 19 -84 -1z"/>
<path d="M2116 7034 c-21 -20 -20 -58 0 -79 25 -24 75 -16 93 16 13 24 13 29&#10;-2 53 -20 30 -66 35 -91 10z"/>
<path d="M2457 7032 c-35 -39 -10 -92 42 -92 32 0 61 27 61 57 0 47 -71 71&#10;-103 35z"/>
<path d="M2797 7032 c-22 -24 -21 -55 1 -75 38 -35 102 -12 102 37 0 49 -70&#10;75 -103 38z"/>
<path d="M3133 7024 c-15 -24 -15 -29 -2 -53 29 -51 109 -33 109 24 0 56 -76&#10;76 -107 29z"/>
<path d="M3482 7038 c-7 -7 -12 -26 -12 -43 0 -17 5 -36 12 -43 7 -7 26 -12&#10;43 -12 17 0 36 5 43 12 17 17 15 64 -4 82 -18 19 -65 21 -82 4z"/>
<path d="M3822 7038 c-7 -7 -12 -26 -12 -43 0 -17 5 -36 12 -43 7 -7 26 -12&#10;43 -12 17 0 36 5 43 12 7 7 12 26 12 43 0 17 -5 36 -12 43 -7 7 -26 12 -43 12&#10;-17 0 -36 -5 -43 -12z"/>
<path d="M4166 7034 c-36 -35 -12 -94 38 -94 38 0 59 19 59 55 0 14 -6 32 -13&#10;40 -16 20 -64 19 -84 -1z"/>
<path d="M4506 7034 c-21 -20 -20 -58 0 -79 25 -24 75 -16 93 16 13 24 13 29&#10;-2 53 -20 30 -66 35 -91 10z"/>
<path d="M4847 7032 c-22 -24 -21 -55 1 -75 38 -35 102 -9 102 40 0 47 -71 71&#10;-103 35z"/>
<path d="M5186 7028 c-21 -29 -20 -51 2 -71 38 -35 102 -12 102 37 0 52 -75&#10;76 -104 34z"/>
<path d="M5523 7024 c-15 -24 -15 -29 -2 -53 10 -19 24 -27 49 -29 38 -4 60&#10;16 60 54 0 55 -76 75 -107 28z"/>
<path d="M5872 7038 c-7 -7 -12 -26 -12 -43 0 -17 5 -36 12 -43 7 -7 26 -12&#10;43 -12 17 0 36 5 43 12 17 17 15 64 -4 82 -18 19 -65 21 -82 4z"/>
<path d="M1432 6698 c-7 -7 -12 -26 -12 -43 0 -39 16 -55 55 -55 39 0 55 16&#10;55 55 0 39 -16 55 -55 55 -17 0 -36 -5 -43 -12z"/>
<path d="M1776 6694 c-36 -35 -12 -94 38 -94 38 0 59 19 59 55 0 14 -6 32 -13&#10;40 -16 20 -64 19 -84 -1z"/>
<path d="M2116 6694 c-21 -20 -20 -58 0 -79 25 -24 75 -16 93 16 13 24 13 29&#10;-2 53 -20 30 -66 35 -91 10z"/>
<path d="M2457 6692 c-22 -24 -21 -55 1 -75 38 -35 102 -9 102 40 0 47 -71 71&#10;-103 35z"/>
<path d="M2797 6692 c-22 -24 -21 -55 1 -75 38 -35 102 -12 102 37 0 49 -70&#10;75 -103 38z"/>
<path d="M3133 6684 c-15 -24 -15 -29 -2 -53 29 -51 109 -33 109 24 0 56 -76&#10;76 -107 29z"/>
<path d="M3482 6698 c-7 -7 -12 -26 -12 -43 0 -17 5 -36 12 -43 7 -7 26 -12&#10;43 -12 17 0 36 5 43 12 17 17 15 64 -4 82 -18 19 -65 21 -82 4z"/>
<path d="M3822 6698 c-7 -7 -12 -26 -12 -43 0 -17 5 -36 12 -43 7 -7 26 -12&#10;43 -12 17 0 36 5 43 12 7 7 12 26 12 43 0 17 -5 36 -12 43 -7 7 -26 12 -43 12&#10;-17 0 -36 -5 -43 -12z"/>
<path d="M4166 6694 c-36 -35 -12 -94 38 -94 38 0 59 19 59 55 0 14 -6 32 -13&#10;40 -16 20 -64 19 -84 -1z"/>
<path d="M4506 6694 c-21 -20 -20 -58 0 -79 25 -24 75 -16 93 16 13 24 13 29&#10;-2 53 -20 30 -66 35 -91 10z"/>
<path d="M4847 6692 c-22 -24 -21 -55 1 -75 38 -35 102 -9 102 40 0 47 -71 71&#10;-103 35z"/>
<path d="M5183 6684 c-15 -24 -15 -29 -2 -53 29 -51 109 -33 109 24 0 56 -76&#10;76 -107 29z"/>
<path d="M5523 6684 c-15 -24 -15 -29 -2 -53 29 -51 109 -33 109 24 0 56 -76&#10;76 -107 29z"/>
<path d="M5872 6698 c-7 -7 -12 -26 -12 -43 0 -17 5 -36 12 -43 7 -7 26 -12&#10;43 -12 17 0 36 5 43 12 7 7 12 26 12 43 0 17 -5 36 -12 43 -7 7 -26 12 -43 12&#10;-17 0 -36 -5 -43 -12z"/>
<path d="M1449 6366 c-30 -14 -38 -66 -14 -90 36 -36 95 -9 95 43 0 44 -41 67&#10;-81 47z"/>
<path d="M1788 6366 c-29 -14 -36 -66 -13 -90 34 -34 98 -10 98 37 0 49 -41&#10;75 -85 53z"/>
<path d="M2140 6373 c-22 -8 -40 -34 -40 -58 0 -51 75 -74 104 -33 22 31 20&#10;45 -9 73 -25 26 -29 27 -55 18z"/>
<path d="M2480 6373 c-63 -23 -45 -113 23 -113 57 0 74 84 22 108 -14 7 -27&#10;12 -28 11 -1 0 -9 -3 -17 -6z"/>
<path d="M2807 6359 c-31 -23 -34 -45 -11 -77 19 -27 64 -29 87 -4 49 54 -19&#10;127 -76 81z"/>
<path d="M3145 6356 c-29 -29 -31 -43 -9 -74 29 -42 104 -18 104 34 0 26 -20&#10;50 -47 59 -17 4 -29 -1 -48 -19z"/>
<path d="M3499 6366 c-31 -15 -39 -74 -13 -93 42 -30 94 -5 94 46 0 44 -41 67&#10;-81 47z"/>
<path d="M3839 6366 c-48 -23 -30 -106 22 -106 39 0 59 19 59 54 0 49 -39 74&#10;-81 52z"/>
<path d="M4180 6367 c-17 -8 -26 -22 -28 -43 -7 -75 91 -89 113 -17 4 17 -1&#10;29 -19 48 -29 29 -32 29 -66 12z"/>
<path d="M4530 6373 c-22 -8 -40 -34 -40 -58 0 -51 75 -74 104 -33 23 32 20&#10;54 -10 77 -28 22 -30 23 -54 14z"/>
<path d="M4870 6373 c-63 -23 -45 -113 23 -113 57 0 74 84 22 108 -14 7 -27&#10;12 -28 11 -1 0 -9 -3 -17 -6z"/>
<path d="M5197 6359 c-31 -23 -34 -45 -11 -77 19 -27 64 -29 87 -4 49 54 -19&#10;127 -76 81z"/>
<path d="M5535 6356 c-30 -30 -32 -49 -5 -76 51 -51 132 15 88 72 -24 30 -56&#10;31 -83 4z"/>
<path d="M5889 6366 c-31 -15 -39 -74 -13 -93 42 -30 94 -5 94 46 0 44 -41 67&#10;-81 47z"/>
<path d="M1442 6024 c-43 -30 -20 -104 33 -104 53 0 76 74 33 104 -12 9 -27&#10;16 -33 16 -6 0 -21 -7 -33 -16z"/>
<path d="M1790 6027 c-50 -25 -32 -107 24 -107 56 0 80 66 36 102 -26 21 -28&#10;21 -60 5z"/>
<path d="M2140 6033 c-22 -8 -40 -34 -40 -58 0 -51 75 -74 104 -33 22 31 20&#10;45 -9 73 -25 26 -29 27 -55 18z"/>
<path d="M2480 6033 c-63 -23 -45 -113 23 -113 57 0 74 84 22 108 -14 7 -27&#10;12 -28 11 -1 0 -9 -3 -17 -6z"/>
<path d="M2807 6019 c-31 -23 -34 -45 -11 -77 19 -27 64 -29 87 -4 49 54 -19&#10;127 -76 81z"/>
<path d="M3145 6016 c-29 -29 -31 -43 -9 -74 29 -42 104 -18 104 34 0 26 -20&#10;50 -47 59 -17 4 -29 -1 -48 -19z"/>
<path d="M3492 6024 c-29 -20 -31 -79 -3 -94 47 -24 91 0 91 49 0 46 -50 72&#10;-88 45z"/>
<path d="M3832 6024 c-41 -29 -20 -104 29 -104 39 0 59 19 59 55 0 33 -27 65&#10;-55 65 -6 0 -21 -7 -33 -16z"/>
<path d="M4180 6027 c-31 -16 -39 -61 -14 -88 31 -34 85 -19 99 28 4 17 -1 29&#10;-19 48 -29 29 -32 29 -66 12z"/>
<path d="M4530 6033 c-22 -8 -40 -34 -40 -58 0 -51 75 -74 104 -33 23 32 20&#10;54 -10 77 -28 22 -30 23 -54 14z"/>
<path d="M4870 6033 c-40 -14 -53 -69 -22 -96 52 -48 132 20 90 75 -15 19 -47&#10;28 -68 21z"/>
<path d="M5197 6019 c-31 -23 -34 -45 -11 -77 19 -27 64 -29 87 -4 49 54 -19&#10;127 -76 81z"/>
<path d="M5535 6016 c-30 -30 -32 -49 -5 -76 39 -39 100 -14 100 42 0 28 -13&#10;42 -47 52 -17 5 -29 1 -48 -18z"/>
<path d="M5882 6024 c-29 -20 -31 -79 -3 -94 47 -24 91 0 91 49 0 46 -50 72&#10;-88 45z"/>
<path d="M1442 5684 c-43 -30 -20 -104 33 -104 53 0 76 74 33 104 -12 9 -27&#10;16 -33 16 -6 0 -21 -7 -33 -16z"/>
<path d="M1782 5684 c-41 -29 -20 -104 29 -104 39 0 59 19 59 55 0 33 -27 65&#10;-55 65 -6 0 -21 -7 -33 -16z"/>
<path d="M2140 5693 c-40 -14 -53 -69 -22 -96 25 -23 58 -21 82 3 26 26 25 46&#10;-5 75 -25 26 -29 27 -55 18z"/>
<path d="M2480 5693 c-40 -14 -53 -69 -22 -96 52 -48 132 20 90 75 -15 19 -47&#10;28 -68 21z"/>
<path d="M2812 5688 c-30 -15 -38 -52 -18 -83 20 -30 65 -34 89 -7 45 49 -10&#10;118 -71 90z"/>
<path d="M3145 5675 c-30 -29 -31 -49 -5 -75 25 -25 62 -26 83 -2 23 25 21 58&#10;-3 82 -26 26 -46 25 -75 -5z"/>
<path d="M3492 5684 c-29 -20 -31 -79 -3 -94 47 -25 91 0 91 50 0 28 -30 60&#10;-55 60 -6 0 -21 -7 -33 -16z"/>
<path d="M3832 5684 c-43 -30 -20 -104 33 -104 53 0 76 74 33 104 -12 9 -27&#10;16 -33 16 -6 0 -21 -7 -33 -16z"/>
<path d="M4172 5684 c-42 -29 -18 -104 34 -104 26 0 50 20 59 47 4 17 -1 29&#10;-19 48 -29 29 -43 31 -74 9z"/>
<path d="M4530 5693 c-22 -8 -40 -34 -40 -58 0 -51 75 -74 104 -33 23 32 20&#10;54 -10 77 -28 22 -30 23 -54 14z"/>
<path d="M4870 5693 c-40 -14 -53 -69 -22 -96 52 -48 132 20 90 75 -15 19 -47&#10;28 -68 21z"/>
<path d="M5197 5679 c-31 -23 -34 -45 -11 -77 19 -27 64 -29 87 -4 49 54 -19&#10;127 -76 81z"/>
<path d="M5535 5675 c-14 -13 -25 -31 -25 -40 0 -23 37 -55 63 -55 53 0 77 75&#10;35 104 -31 22 -45 20 -73 -9z"/>
<path d="M5882 5684 c-29 -20 -31 -79 -3 -94 47 -25 91 0 91 50 0 28 -30 60&#10;-55 60 -6 0 -21 -7 -33 -16z"/>
<path d="M1437 5342 c-35 -38 -9 -102 40 -102 47 0 71 71 35 103 -24 22 -55&#10;21 -75 -1z"/>
<path d="M1777 5342 c-35 -38 -9 -102 41 -102 22 0 51 24 53 43 6 63 -56 101&#10;-94 59z"/>
<path d="M2122 5344 c-44 -31 -16 -104 40 -104 24 0 58 35 58 60 0 25 -34 60&#10;-58 60 -10 0 -28 -7 -40 -16z"/>
<path d="M2460 5340 c-11 -11 -20 -29 -20 -40 0 -26 34 -60 60 -60 26 0 60 34&#10;60 60 0 26 -34 60 -60 60 -11 0 -29 -9 -40 -20z"/>
<path d="M2800 5340 c-11 -11 -20 -29 -20 -40 0 -26 34 -60 60 -60 26 0 60 34&#10;60 60 0 26 -34 60 -60 60 -11 0 -29 -9 -40 -20z"/>
<path d="M3140 5340 c-11 -11 -20 -29 -20 -40 0 -25 34 -60 58 -60 32 0 62 29&#10;62 60 0 53 -62 78 -100 40z"/>
<path d="M3487 5342 c-35 -38 -9 -102 40 -102 47 0 71 71 35 103 -24 22 -55&#10;21 -75 -1z"/>
<path d="M3827 5342 c-35 -38 -9 -102 40 -102 47 0 71 71 35 103 -24 22 -55&#10;21 -75 -1z"/>
<path d="M4172 5344 c-27 -19 -29 -64 -4 -87 48 -44 120 9 91 66 -22 40 -50&#10;47 -87 21z"/>
<path d="M4512 5344 c-44 -31 -16 -104 40 -104 24 0 58 35 58 60 0 25 -34 60&#10;-58 60 -10 0 -28 -7 -40 -16z"/>
<path d="M4850 5340 c-11 -11 -20 -29 -20 -40 0 -26 34 -60 60 -60 26 0 60 34&#10;60 60 0 26 -34 60 -60 60 -11 0 -29 -9 -40 -20z"/>
<path d="M5190 5340 c-11 -11 -20 -29 -20 -40 0 -25 34 -60 58 -60 29 0 62 29&#10;62 56 0 29 -32 64 -60 64 -11 0 -29 -9 -40 -20z"/>
<path d="M5542 5353 c-21 -8 -33 -50 -22 -78 21 -55 110 -35 110 25 0 43 -45&#10;70 -88 53z"/>
<path d="M5877 5342 c-35 -38 -9 -102 40 -102 47 0 71 71 35 103 -24 22 -55&#10;21 -75 -1z"/>
<path d="M1442 5004 c-43 -30 -20 -104 33 -104 53 0 76 74 33 104 -12 9 -27&#10;16 -33 16 -6 0 -21 -7 -33 -16z"/>
<path d="M1782 5004 c-42 -29 -18 -104 34 -104 54 0 77 67 34 102 -27 22 -39&#10;22 -68 2z"/>
<path d="M2120 5000 c-38 -38 -14 -100 38 -100 25 0 62 33 62 55 0 20 -45 65&#10;-65 65 -8 0 -24 -9 -35 -20z"/>
<path d="M2460 5000 c-39 -39 -14 -100 43 -100 28 0 57 32 57 62 0 24 -35 58&#10;-60 58 -11 0 -29 -9 -40 -20z"/>
<path d="M2800 5000 c-24 -24 -25 -48 -4 -78 30 -43 104 -17 104 36 0 28 -34&#10;62 -60 62 -11 0 -29 -9 -40 -20z"/>
<path d="M3145 4995 c-30 -29 -31 -49 -5 -75 25 -25 62 -26 83 -2 23 25 21 58&#10;-3 82 -26 26 -46 25 -75 -5z"/>
<path d="M3492 5004 c-29 -20 -31 -79 -3 -94 47 -25 91 0 91 50 0 28 -30 60&#10;-55 60 -6 0 -21 -7 -33 -16z"/>
<path d="M3832 5004 c-43 -30 -20 -104 33 -104 53 0 76 74 33 104 -12 9 -27&#10;16 -33 16 -6 0 -21 -7 -33 -16z"/>
<path d="M4172 5004 c-42 -29 -18 -104 34 -104 26 0 50 20 59 47 4 17 -1 29&#10;-19 48 -29 29 -43 31 -74 9z"/>
<path d="M4510 5000 c-38 -38 -14 -100 38 -100 27 0 62 33 62 59 0 21 -44 61&#10;-66 61 -8 0 -23 -9 -34 -20z"/>
<path d="M4850 5000 c-24 -24 -25 -48 -4 -78 31 -44 104 -16 104 40 0 24 -35&#10;58 -60 58 -11 0 -29 -9 -40 -20z"/>
<path d="M5205 5008 c-40 -23 -46 -57 -15 -88 25 -25 62 -26 83 -2 23 25 21&#10;58 -3 82 -23 23 -36 24 -65 8z"/>
<path d="M5534 4995 c-18 -19 -23 -31 -19 -48 14 -46 68 -62 98 -29 24 26 21&#10;68 -5 86 -31 22 -45 20 -74 -9z"/>
<path d="M5882 5004 c-29 -20 -31 -79 -3 -94 47 -25 91 0 91 50 0 28 -30 60&#10;-55 60 -6 0 -21 -7 -33 -16z"/>
<path d="M9620 4069 c-85 -14 -209 -80 -278 -147 -154 -152 -223 -331 -226&#10;-587 0 -71 3 -161 7 -199 l8 -69 -73 7 c-277 27 -520 134 -749 329 -95 81&#10;-193 202 -271 335 -53 88 -78 119 -78 96 0 -17 88 -164 142 -237 224 -303 550&#10;-492 933 -540 l98 -12 23 -88 c36 -134 87 -231 165 -308 113 -113 237 -157&#10;417 -146 125 8 221 35 357 102 189 94 331 206 674 532 322 307 497 445 686&#10;540 160 81 345 133 475 133 63 0 167 -16 207 -31 l28 -10 -67 -60 c-81 -72&#10;-162 -189 -185 -267 -74 -251 91 -465 318 -412 74 18 124 44 173 93 109 110&#10;124 281 38 441 -34 63 -127 158 -183 187 l-43 21 25 19 c86 65 252 138 393&#10;174 299 76 595 51 865 -72 42 -19 78 -30 83 -25 11 11 -120 71 -227 105 -355&#10;111 -776 58 -1090 -138 l-76 -47 -62 17 c-141 41 -345 28 -510 -32 -257 -92&#10;-467 -240 -816 -576 -391 -377 -568 -513 -781 -602 -349 -146 -649 -67 -781&#10;205 -33 67 -79 207 -79 238 0 8 26 12 83 12 112 0 249 24 379 67 235 77 398&#10;216 468 398 18 47 23 81 24 160 1 90 -2 106 -27 160 -78 168 -273 265 -467&#10;234z m244 -49 c71 -29 159 -106 191 -169 100 -199 9 -457 -214 -605 -150 -100&#10;-354 -163 -563 -173 l-126 -6 -8 69 c-22 182 -1 398 51 527 71 177 210 318&#10;365 369 78 26 223 20 304 -12z m2480 -364 c137 -137 172 -336 82 -471 -52 -79&#10;-169 -145 -256 -145 -58 0 -132 31 -175 74 -58 59 -79 123 -73 230 7 133 76&#10;254 207 362 l64 53 48 -25 c27 -13 73 -49 103 -78z"/>
<path d="M2700 3259 c-253 -22 -496 -192 -606 -424 -58 -122 -77 -219 -71&#10;-365 5 -134 22 -200 78 -314 72 -144 193 -263 344 -337 133 -65 224 -83 375&#10;-76 130 6 190 21 304 78 199 99 350 289 402 506 24 98 21 266 -5 367 -97 369&#10;-431 599 -821 565z m223 -75 c40 -9 115 -36 167 -61 79 -38 107 -59 180 -132&#10;94 -95 142 -174 181 -301 30 -97 33 -273 5 -365 -74 -250 -261 -434 -504 -496&#10;-91 -23 -228 -25 -327 -4 -247 53 -461 267 -521 522 -24 104 -15 285 19 381&#10;117 331 466 530 800 456z"/>
</g>
</svg>