<svg width="950" height="649" viewBox="0 0 950 649" fill="none" xmlns="http://www.w3.org/2000/svg">
<g clip-path="url(#clip0_595_14703)">
<path d="M252.125 114.146V95.8332C252.125 94.0466 250.677 92.5816 248.872 92.5816H244.153C242.777 92.5816 241.544 91.6525 241.24 90.2947C239.614 83.184 236.825 76.5022 233.072 70.4992C232.321 69.3022 232.464 67.7478 233.465 66.7473L236.79 63.4243C238.059 62.1558 238.059 60.1012 236.79 58.8327L223.831 45.8799C222.562 44.6114 220.507 44.6114 219.238 45.8799L215.931 49.1851C214.93 50.1856 213.375 50.3285 212.178 49.5781C206.154 45.8263 199.487 43.0392 192.374 41.4134C191.033 41.1096 190.086 39.8769 190.086 38.5012V33.8025C190.086 32.0159 188.638 30.5508 186.833 30.5508H168.548C166.761 30.5508 165.295 31.998 165.295 33.8025V38.5012C165.295 39.8769 164.366 41.1096 163.007 41.4134C155.894 43.0392 149.209 45.8263 143.185 49.5781C141.988 50.3285 140.433 50.1856 139.432 49.1851L136.125 45.8799C134.856 44.6114 132.801 44.6114 131.532 45.8799L118.573 58.8327C117.304 60.1012 117.304 62.1558 118.573 63.4243L121.88 66.7295C122.881 67.73 123.024 69.2843 122.273 70.4813C118.52 76.5022 115.749 83.1662 114.105 90.2768C113.801 91.6168 112.568 92.5637 111.192 92.5637H106.527C104.739 92.5637 103.274 94.0108 103.274 95.8153V114.128C103.274 115.915 104.721 117.38 106.527 117.38H111.245C112.622 117.38 113.855 118.309 114.159 119.666C115.785 126.777 118.573 133.459 122.327 139.462C123.078 140.659 122.935 142.213 121.934 143.214L118.609 146.537C117.34 147.805 117.34 149.86 118.609 151.128L131.568 164.081C132.837 165.35 134.892 165.35 136.161 164.081L139.486 160.758C140.487 159.758 142.042 159.615 143.239 160.365C149.245 164.117 155.929 166.886 163.043 168.512C164.384 168.816 165.331 170.048 165.331 171.424V176.141C165.331 177.927 166.779 179.392 168.584 179.392H186.904C188.692 179.392 190.157 177.945 190.157 176.141V171.424C190.157 170.048 191.105 168.816 192.445 168.512C199.559 166.886 206.226 164.099 212.249 160.365C213.447 159.615 215.002 159.758 216.003 160.758L219.327 164.081C220.596 165.35 222.651 165.35 223.921 164.081L236.879 151.128C238.148 149.86 238.148 147.805 236.879 146.537L233.554 143.214C232.553 142.213 232.41 140.659 233.161 139.462C236.915 133.459 239.685 126.777 241.329 119.666C241.633 118.326 242.867 117.38 244.243 117.38H248.961C250.677 117.397 252.125 115.95 252.125 114.146ZM177.699 156.631C149.173 156.631 126.08 133.495 126.08 104.981C126.08 76.5022 149.173 53.3836 177.699 53.3836C206.226 53.3836 229.318 76.52 229.318 104.981C229.318 133.495 206.226 156.631 177.699 156.631Z" stroke="#DEE3FC" stroke-width="0.7896" stroke-miterlimit="10"/>
<path d="M328.338 216.304V203.815C328.338 202.6 327.355 201.6 326.122 201.6H322.905C321.957 201.6 321.135 200.957 320.921 200.045C319.812 195.204 317.918 190.648 315.362 186.557C314.844 185.735 314.951 184.681 315.63 184.002L317.882 181.751C318.74 180.893 318.74 179.482 317.882 178.624L309.052 169.798C308.195 168.941 306.783 168.941 305.925 169.798L303.673 172.049C302.993 172.728 301.939 172.836 301.117 172.317C297.024 169.763 292.466 167.869 287.622 166.761C286.71 166.547 286.067 165.725 286.067 164.778V161.58C286.067 160.365 285.084 159.365 283.851 159.365H271.357C270.142 159.365 269.141 160.347 269.141 161.58V164.778C269.141 165.725 268.497 166.547 267.586 166.761C262.742 167.869 258.184 169.763 254.091 172.317C253.269 172.836 252.214 172.728 251.535 172.049L249.283 169.798C248.425 168.941 247.013 168.941 246.155 169.798L237.326 178.624C236.468 179.482 236.468 180.893 237.326 181.751L239.578 184.002C240.257 184.681 240.364 185.735 239.846 186.557C237.29 190.648 235.395 195.204 234.287 200.045C234.073 200.957 233.251 201.6 232.303 201.6H229.086C227.871 201.6 226.87 202.582 226.87 203.815V216.304C226.87 217.518 227.853 218.519 229.086 218.519H232.303C233.251 218.519 234.073 219.162 234.287 220.073C235.395 224.915 237.29 229.471 239.846 233.562C240.364 234.384 240.257 235.438 239.578 236.117L237.326 238.368C236.468 239.226 236.468 240.637 237.326 241.495L246.155 250.32C247.013 251.178 248.425 251.178 249.283 250.32L251.553 248.051C252.232 247.372 253.287 247.265 254.109 247.783C258.202 250.338 262.76 252.232 267.604 253.34C268.515 253.554 269.159 254.376 269.159 255.323V258.539C269.159 259.754 270.142 260.754 271.375 260.754H283.869C285.084 260.754 286.085 259.771 286.085 258.539V255.323C286.085 254.376 286.728 253.554 287.64 253.34C292.484 252.232 297.041 250.338 301.134 247.783C301.957 247.265 303.011 247.372 303.69 248.051L305.96 250.32C306.818 251.178 308.23 251.178 309.088 250.32L317.918 241.495C318.776 240.637 318.776 239.226 317.918 238.368L315.648 236.099C314.969 235.42 314.861 234.366 315.38 233.544C317.936 229.453 319.83 224.897 320.938 220.055C321.153 219.144 321.975 218.501 322.922 218.501H326.14C327.337 218.519 328.338 217.536 328.338 216.304ZM277.613 243.263C259.274 243.263 244.422 228.381 244.422 210.05C244.422 191.738 259.274 176.873 277.613 176.873C295.951 176.873 310.804 191.756 310.804 210.05C310.804 228.399 295.951 243.263 277.613 243.263Z" fill="#FFC48F"/>
<path d="M93.2288 546.735C96.5752 546.735 99.288 544.023 99.288 540.678C99.288 537.334 96.5752 534.622 93.2288 534.622C89.8825 534.622 87.1697 537.334 87.1697 540.678C87.1697 544.023 89.8825 546.735 93.2288 546.735Z" fill="#A4AFFF"/>
<path d="M904.047 381.439C907.393 381.439 910.106 378.727 910.106 375.382C910.106 372.037 907.393 369.326 904.047 369.326C900.701 369.326 897.988 372.037 897.988 375.382C897.988 378.727 900.701 381.439 904.047 381.439Z" fill="#A4AFFF"/>
<path d="M891.929 165.421C895.275 165.421 897.988 162.71 897.988 159.365C897.988 156.02 895.275 153.308 891.929 153.308C888.582 153.308 885.87 156.02 885.87 159.365C885.87 162.71 888.582 165.421 891.929 165.421Z" fill="#A4AFFF"/>
<path d="M674.335 89.7409C676.428 89.7409 678.125 88.0451 678.125 85.9533C678.125 83.8614 676.428 82.1657 674.335 82.1657C672.243 82.1657 670.546 83.8614 670.546 85.9533C670.546 88.0451 672.243 89.7409 674.335 89.7409Z" fill="#A4AFFF"/>
<path d="M116.929 35.4104C116.929 37.5007 115.231 39.198 113.14 39.198C111.049 39.198 109.351 37.5007 109.351 35.4104C109.351 33.3201 111.049 31.6228 113.14 31.6228C115.231 31.605 116.929 33.3022 116.929 35.4104Z" fill="#A4AFFF"/>
<path d="M200.953 269.08C200.953 271.17 199.255 272.867 197.164 272.867C195.072 272.867 193.375 271.17 193.375 269.08C193.375 266.989 195.072 265.292 197.164 265.292C199.255 265.292 200.953 266.989 200.953 269.08Z" fill="#A4AFFF"/>
<path d="M61.6819 546.735C61.6819 548.825 59.9839 550.523 57.8927 550.523C55.8015 550.523 54.1035 548.825 54.1035 546.735C54.1035 544.645 55.8015 542.947 57.8927 542.947C59.9839 542.947 61.6819 544.645 61.6819 546.735Z" fill="#A4AFFF"/>
<path d="M815.269 550.326C818.615 550.326 821.328 547.615 821.328 544.27C821.328 540.925 818.615 538.213 815.269 538.213C811.922 538.213 809.21 540.925 809.21 544.27C809.21 547.615 811.922 550.326 815.269 550.326Z" fill="#A4AFFF"/>
<path d="M943.959 550.326C947.305 550.326 950.018 547.615 950.018 544.27C950.018 540.925 947.305 538.213 943.959 538.213C940.612 538.213 937.9 540.925 937.9 544.27C937.9 547.615 940.612 550.326 943.959 550.326Z" fill="#A4AFFF"/>
<path d="M221.275 24.9588C224.622 24.9588 227.334 22.2472 227.334 18.9022C227.334 15.5573 224.622 12.8456 221.275 12.8456C217.929 12.8456 215.216 15.5573 215.216 18.9022C215.216 22.2472 217.929 24.9588 221.275 24.9588Z" fill="#A4AFFF"/>
<path d="M638.838 294.146C638.838 298.612 635.21 302.239 630.742 302.239C626.273 302.239 622.645 298.612 622.645 294.146C622.645 289.679 626.273 286.052 630.742 286.052C635.21 286.052 638.838 289.679 638.838 294.146Z" fill="#A4AFFF"/>
<path d="M41.5741 194.06C41.5741 198.527 37.9458 202.154 33.4774 202.154C29.009 202.154 25.3806 198.527 25.3806 194.06C25.3806 189.594 29.009 185.967 33.4774 185.967C37.9458 185.967 41.5741 189.576 41.5741 194.06Z" fill="#A4AFFF"/>
<path d="M874.18 514.04H863.992C863.331 514.04 862.812 513.504 862.812 512.861V502.678C862.812 502.016 863.349 501.498 863.992 501.498H874.18C874.841 501.498 875.36 502.034 875.36 502.678V512.861C875.36 513.504 874.841 514.04 874.18 514.04Z" fill="#FFC48F"/>
<path d="M890.981 514.04H880.793C880.132 514.04 879.614 513.504 879.614 512.861V502.678C879.614 502.016 880.15 501.498 880.793 501.498H890.981C891.643 501.498 892.161 502.034 892.161 502.678V512.861C892.161 513.504 891.625 514.04 890.981 514.04Z" fill="#FFC48F"/>
<path d="M907.765 514.04H897.577C896.915 514.04 896.397 513.504 896.397 512.861V502.678C896.397 502.016 896.933 501.498 897.577 501.498H907.765C908.426 501.498 908.944 502.034 908.944 502.678V512.861C908.962 513.504 908.426 514.04 907.765 514.04Z" fill="#FFC48F"/>
<path d="M97.6257 507.162H87.4377C86.7764 507.162 86.2581 506.626 86.2581 505.983V495.799C86.2581 495.138 86.7943 494.62 87.4377 494.62H97.6257C98.287 494.62 98.8053 495.156 98.8053 495.799V505.983C98.8232 506.626 98.287 507.162 97.6257 507.162Z" fill="#FFC48F"/>
<path d="M114.427 507.162H104.239C103.577 507.162 103.059 506.626 103.059 505.983V495.799C103.059 495.138 103.595 494.62 104.239 494.62H114.427C115.088 494.62 115.606 495.156 115.606 495.799V505.983C115.624 506.626 115.088 507.162 114.427 507.162Z" fill="#FFC48F"/>
<path d="M131.228 507.162H121.04C120.379 507.162 119.86 506.626 119.86 505.983V495.799C119.86 495.138 120.397 494.62 121.04 494.62H131.228C131.889 494.62 132.408 495.156 132.408 495.799V505.983C132.408 506.626 131.889 507.162 131.228 507.162Z" fill="#FFC48F"/>
<path d="M552.884 615.037H311.054C289.981 615.037 272.894 597.957 272.894 576.893V38.8407C272.894 17.7767 289.981 0.696777 311.054 0.696777H552.884C573.957 0.696777 591.044 17.7767 591.044 38.8407V576.893C591.026 597.975 573.957 615.037 552.884 615.037Z" fill="#003F82"/>
<path d="M551.651 606.318H312.27C293.806 606.318 278.846 591.364 278.846 572.909V39.5017C278.846 21.0462 293.806 6.09232 312.27 6.09232H551.651C570.115 6.09232 585.075 21.0462 585.075 39.5017V572.909C585.075 591.364 570.115 606.318 551.651 606.318Z" fill="#EDEDED"/>
<path d="M571.669 38.4476V571.247C571.669 583.736 561.535 593.866 549.041 593.866H314.879C302.386 593.866 292.251 583.736 292.251 571.247V38.4476C292.251 25.9593 302.386 15.8293 314.879 15.8293H353.933C356.096 15.8293 358.08 17.0442 359.045 18.9916L363.192 27.2635C365.086 31.0868 368.983 33.4809 373.219 33.4809H490.684C494.92 33.4809 498.834 31.0868 500.711 27.2635L504.858 18.9916C505.823 17.062 507.807 15.8293 509.97 15.8293H549.023C561.535 15.8114 571.669 25.9414 571.669 38.4476Z" fill="#FFC48F"/>
<path d="M481.265 23.7796H386.66C384.461 23.7796 382.674 21.993 382.674 19.7955C382.674 17.598 384.461 15.8114 386.66 15.8114H481.265C483.463 15.8114 485.25 17.598 485.25 19.7955C485.233 21.993 483.463 23.7796 481.265 23.7796Z" fill="#FFC48F"/>
<path d="M534.51 575.374H323.959C315.684 575.374 308.981 568.675 308.981 560.403V486.098C308.981 477.826 315.684 471.126 323.959 471.126H534.492C542.768 471.126 549.47 477.826 549.47 486.098V560.403C549.47 568.675 542.768 575.374 534.51 575.374Z" stroke="#3A3A3A" stroke-miterlimit="10" stroke-linecap="round" stroke-linejoin="round" stroke-dasharray="2.84 2.84"/>
<path d="M523.839 319.551H419.404C413.434 319.551 408.608 314.709 408.608 308.76V257.163C408.608 251.196 413.452 246.372 419.404 246.372H523.839C529.809 246.372 534.635 251.214 534.635 257.163V308.76C534.635 314.727 529.791 319.551 523.839 319.551Z" stroke="#3A3A3A" stroke-miterlimit="10" stroke-linecap="round" stroke-linejoin="round" stroke-dasharray="2.84 2.84"/>
<path d="M546.325 453.778H330.608C323.494 453.778 317.739 448.025 317.739 440.915V349.977C317.739 342.866 323.494 337.113 330.608 337.113H546.307C553.42 337.113 559.176 342.866 559.176 349.977V440.915C559.194 448.025 553.42 453.778 546.325 453.778Z" fill="#4B5A9B"/>
<path d="M549.47 340.526V431.517C549.47 438.61 543.715 444.345 536.619 444.345H321.832C314.736 444.345 308.981 438.61 308.981 431.517V340.526C308.981 333.433 314.736 327.68 321.832 327.68H536.619C543.715 327.68 549.47 333.433 549.47 340.526Z" fill="#003F82"/>
<path d="M392.058 434.858H328.785C323.995 434.858 320.098 430.963 320.098 426.175V362.93C320.098 358.142 323.995 354.247 328.785 354.247H392.058C396.848 354.247 400.744 358.142 400.744 362.93V426.175C400.762 430.963 396.866 434.858 392.058 434.858Z" fill="#EDEDED"/>
<path d="M467.055 364.43H411.325C409.806 364.43 408.573 363.198 408.573 361.679C408.573 360.161 409.806 358.928 411.325 358.928H467.055C468.574 358.928 469.808 360.161 469.808 361.679C469.808 363.216 468.574 364.43 467.055 364.43Z" fill="#FF8401"/>
<path d="M441.657 375.382H411.325C409.806 375.382 408.573 374.15 408.573 372.631C408.573 371.112 409.806 369.88 411.325 369.88H441.657C443.176 369.88 444.409 371.112 444.409 372.631C444.409 374.167 443.176 375.382 441.657 375.382Z" fill="#FF8401"/>
<path d="M534.903 375.382H452.828C451.308 375.382 450.075 374.15 450.075 372.631C450.075 371.112 451.308 369.88 452.828 369.88H534.903C536.423 369.88 537.656 371.112 537.656 372.631C537.656 374.167 536.423 375.382 534.903 375.382Z" fill="#FF8401"/>
<path d="M458.261 386.334H411.325C409.806 386.334 408.573 385.101 408.573 383.583C408.573 382.064 409.806 380.831 411.325 380.831H458.261C459.781 380.831 461.014 382.064 461.014 383.583C461.014 385.101 459.781 386.334 458.261 386.334Z" fill="#FF8401"/>
<path d="M498.102 386.334H468.592C467.073 386.334 465.84 385.101 465.84 383.583C465.84 382.064 467.073 380.831 468.592 380.831H498.102C499.621 380.831 500.854 382.064 500.854 383.583C500.836 385.101 499.621 386.334 498.102 386.334Z" fill="#FF8401"/>
<path d="M534.903 386.334H507.735C506.216 386.334 504.983 385.101 504.983 383.583C504.983 382.064 506.216 380.831 507.735 380.831H534.903C536.423 380.831 537.656 382.064 537.656 383.583C537.656 385.101 536.423 386.334 534.903 386.334Z" fill="#FF8401"/>
<path d="M534.903 397.286H411.325C409.806 397.286 408.573 396.053 408.573 394.535C408.573 393.016 409.806 391.783 411.325 391.783H534.903C536.423 391.783 537.656 393.016 537.656 394.535C537.656 396.053 536.423 397.286 534.903 397.286Z" fill="#FF8401"/>
<path d="M479.352 408.238H411.343C409.824 408.238 408.591 407.005 408.591 405.487C408.591 403.968 409.824 402.735 411.343 402.735H479.352C480.871 402.735 482.105 403.968 482.105 405.487C482.087 407.005 480.854 408.238 479.352 408.238Z" fill="#FF8401"/>
<path d="M534.903 408.238H490.309C488.789 408.238 487.556 407.005 487.556 405.487C487.556 403.968 488.789 402.735 490.309 402.735H534.903C536.423 402.735 537.656 403.968 537.656 405.487C537.656 407.005 536.423 408.238 534.903 408.238Z" fill="#FF8401"/>
<path d="M451.291 419.19H411.325C409.806 419.19 408.573 417.957 408.573 416.438C408.573 414.92 409.806 413.687 411.325 413.687H451.291C452.81 413.687 454.043 414.92 454.043 416.438C454.043 417.957 452.81 419.19 451.291 419.19Z" fill="#FF8401"/>
<path d="M502.069 419.19H462.104C460.585 419.19 459.352 417.957 459.352 416.438C459.352 414.92 460.585 413.687 462.104 413.687H502.069C503.589 413.687 504.822 414.92 504.822 416.438C504.804 417.957 503.589 419.19 502.069 419.19Z" fill="#FF8401"/>
<path d="M534.903 419.19H511.721C510.202 419.19 508.969 417.957 508.969 416.438C508.969 414.92 510.202 413.687 511.721 413.687H534.903C536.423 413.687 537.656 414.92 537.656 416.438C537.656 417.957 536.423 419.19 534.903 419.19Z" fill="#FF8401"/>
<path d="M467.055 430.142H411.325C409.806 430.142 408.573 428.909 408.573 427.39C408.573 425.872 409.806 424.639 411.325 424.639H467.055C468.574 424.639 469.808 425.872 469.808 427.39C469.808 428.909 468.574 430.142 467.055 430.142Z" fill="#FF8401"/>
<path d="M534.903 364.43H479.173C477.654 364.43 476.421 363.198 476.421 361.679C476.421 360.161 477.654 358.928 479.173 358.928H534.903C536.423 358.928 537.656 360.161 537.656 361.679C537.656 363.216 536.423 364.43 534.903 364.43Z" fill="#FF8401"/>
<path d="M549.47 340.526V344.349H308.981V340.526C308.981 333.433 314.736 327.68 321.832 327.68H536.619C543.715 327.68 549.47 333.433 549.47 340.526Z" fill="#3052CE"/>
<path d="M504.143 336.309C504.143 337.953 502.802 339.293 501.158 339.293C499.514 339.293 498.173 337.953 498.173 336.309C498.173 334.666 499.514 333.326 501.158 333.326C502.82 333.326 504.143 334.666 504.143 336.309Z" fill="#FFC48F"/>
<path d="M519.389 336.309C519.389 337.953 518.048 339.293 516.404 339.293C514.76 339.293 513.419 337.953 513.419 336.309C513.419 334.666 514.76 333.326 516.404 333.326C518.048 333.326 519.389 334.666 519.389 336.309Z" fill="#FFC48F"/>
<path d="M534.635 336.309C534.635 337.953 533.295 339.293 531.65 339.293C530.006 339.293 528.666 337.953 528.666 336.309C528.666 334.666 530.006 333.326 531.65 333.326C533.295 333.326 534.635 334.666 534.635 336.309Z" fill="#FFC48F"/>
<path d="M383.442 319.551H335.845C328.785 319.551 323.065 313.834 323.065 306.777V259.2C323.065 252.143 328.785 246.426 335.845 246.426H383.442C390.503 246.426 396.222 252.143 396.222 259.2V306.777C396.222 313.834 390.503 319.551 383.442 319.551Z" stroke="#495AD6" stroke-width="0.8956" stroke-miterlimit="10"/>
<path d="M348.231 272.421L337.686 282.944L348.321 293.574" stroke="#495AD6" stroke-width="1.6716" stroke-miterlimit="10" stroke-linecap="round" stroke-linejoin="round"/>
<path d="M371.056 272.421L381.602 282.944L370.967 293.574" stroke="#495AD6" stroke-width="1.6716" stroke-miterlimit="10" stroke-linecap="round" stroke-linejoin="round"/>
<path d="M364.586 272.421L354.72 293.574" stroke="#495AD6" stroke-width="1.6716" stroke-miterlimit="10" stroke-linecap="round" stroke-linejoin="round"/>
<path d="M549.47 67.9444V216.714C549.47 224.79 542.929 231.329 534.85 231.329H323.602C315.541 231.329 308.981 224.79 308.981 216.714V67.9444C308.981 59.8689 315.541 53.33 323.602 53.33H534.85C542.929 53.33 549.47 59.8689 549.47 67.9444Z" fill="#FF8401"/>
<path d="M500.765 135.174C520.014 135.174 535.618 119.576 535.618 100.335C535.618 81.0945 520.014 65.4967 500.765 65.4967C481.516 65.4967 465.911 81.0945 465.911 100.335C465.911 119.576 481.516 135.174 500.765 135.174Z" fill="#F0F4FF"/>
<path d="M450.343 231.329H323.602C315.541 231.329 308.981 224.79 308.981 216.714V193.292L364.443 97.2624C367.338 92.2421 374.595 92.2421 377.49 97.2624L419.368 169.763L450.468 223.611C451.97 226.183 451.737 229.113 450.343 231.329Z" fill="#EDEDED"/>
<path d="M505.001 231.329H383.8L419.369 169.763L438.529 136.586C441.139 132.065 447.662 132.065 450.272 136.586L505.001 231.329Z" fill="#F0F4FF"/>
<path d="M745.419 507.769H651.975V648.124H745.419V507.769Z" fill="#3B47BC"/>
<path d="M745.406 648.115H781.189V507.759H745.406V648.115Z" fill="#495AD6"/>
<path d="M776.805 513.147H750.531V517.631H776.805V513.147Z" fill="#FF8401"/>
<path d="M776.805 522.777H750.531V527.261H776.805V522.777Z" fill="#FF8401"/>
<path d="M776.805 532.407H750.531V536.891H776.805V532.407Z" fill="#FF8401"/>
<path d="M776.805 542.018H750.531V546.503H776.805V542.018Z" fill="#FF8401"/>
<path d="M776.805 551.648H750.531V556.133H776.805V551.648Z" fill="#FF8401"/>
<path d="M776.805 561.26H750.531V565.745H776.805V561.26Z" fill="#FF8401"/>
<path d="M776.805 570.89H750.531V575.374H776.805V570.89Z" fill="#FF8401"/>
<path d="M776.805 580.52H750.531V585.004H776.805V580.52Z" fill="#FF8401"/>
<path d="M776.805 590.132H750.531V594.616H776.805V590.132Z" fill="#FF8401"/>
<path d="M776.805 599.761H750.531V604.246H776.805V599.761Z" fill="#FF8401"/>
<path d="M776.805 609.391H750.531V613.875H776.805V609.391Z" fill="#FF8401"/>
<path d="M776.805 619.003H750.531V623.487H776.805V619.003Z" fill="#FF8401"/>
<path d="M776.805 628.633H750.531V633.117H776.805V628.633Z" fill="#FF8401"/>
<path d="M776.805 638.245H750.531V642.729H776.805V638.245Z" fill="#FF8401"/>
<path d="M636.783 648.124H684.273C684.273 648.124 686.918 639.674 681.181 629.204C681.181 629.204 677.356 632.26 665.917 630.187C665.917 630.187 661.145 634.243 657.838 635.833C654.514 637.441 635.514 641.157 636.783 648.124Z" fill="#281616"/>
<path d="M640.107 514.272C643.182 532.567 657.32 594.455 663.415 631.009C674.532 631.956 679.876 630.687 682.7 630.026C682.146 617.27 681.056 586.773 681.181 573.409C681.395 550.808 682.45 521.008 672.494 504.643L639.017 507.269C639.214 509.038 639.41 510.467 639.571 511.503C639.732 512.504 639.911 513.415 640.107 514.272Z" fill="#2B2B2B"/>
<path d="M550.9 648.124H598.39C598.39 648.124 601.036 639.674 595.298 629.204C595.298 629.204 591.473 632.26 580.034 630.187C580.034 630.187 575.262 634.243 571.955 635.833C568.631 637.441 549.613 641.157 550.9 648.124Z" fill="#281616"/>
<path d="M578.64 629.955C587.72 632.206 594.28 631.974 597.407 631.634C599.928 616.931 603.913 584.611 607.506 569.443C613.083 545.877 618.534 513.486 614.745 501.927L581.822 493.655C581.697 494.709 579.015 593.866 578.64 629.955Z" fill="#212121"/>
<path d="M709.671 459.924C709.01 453.421 708.242 448.669 708.242 448.669L671.458 457.673L640.215 464.784C628.633 467.356 614.638 470.465 602.305 473.252C588.453 476.397 579.266 486.902 582.304 500.766L585.772 517.578C605.129 517.31 696.177 508.591 703.952 504.661C712.764 500.212 715.409 484.526 709.671 459.924Z" fill="#212121"/>
<path d="M764.579 459.924C763.918 453.421 760.736 446.435 760.736 446.435L726.365 457.655L695.122 464.766C683.54 467.339 669.545 470.447 657.212 473.234C643.36 476.379 634.173 486.884 637.212 500.748L640.679 517.56C660.037 517.292 740.968 514.469 758.86 504.643C767.51 499.908 770.317 484.526 764.579 459.924Z" fill="#2B2B2B"/>
<path d="M661.627 407.237C661.627 407.237 677.964 399.859 682.468 407.255C684.934 411.311 683.219 418.832 677.66 421.995C672.083 425.157 640.608 438.467 610.884 445.882C610.884 445.882 609.615 441.754 607.56 437.413C607.56 437.413 620.893 431.892 634.138 422.584C647.4 413.258 661.627 407.237 661.627 407.237Z" fill="#E5918F"/>
<path d="M665.72 356.23L651.725 412.133C651.725 412.133 653.173 426.265 667.454 419.333C681.735 412.401 691.19 367.861 691.19 367.861L665.72 356.23Z" fill="#E5918F"/>
<path d="M689.403 387.495C687.669 387.085 686.025 386.62 684.416 386.138C682.79 385.655 681.234 385.155 679.751 384.637C666.453 380.081 659.25 374.596 659.25 374.596C663.432 356.427 668.473 344.206 672.959 336.166C673.084 335.97 673.191 335.791 673.299 335.577C673.424 335.38 673.531 335.184 673.656 334.987C676.069 330.985 679.537 327.627 683.397 324.857C683.79 324.571 684.166 324.321 684.577 324.035L686.221 353.229L686.507 356.23L689.403 387.495Z" fill="#EDEDED"/>
<path d="M689.403 387.496C687.669 387.085 686.025 386.62 684.416 386.138C682.79 385.655 681.234 385.155 679.751 384.637C682.539 364.984 685.077 352.621 685.077 352.621L686.507 356.23L689.403 387.496Z" fill="#C7E5F2"/>
<path d="M772.068 337.024C771.729 345.671 770.209 359.535 768.905 373.471C768.494 377.884 768.082 382.332 767.743 386.602C767.51 389.264 763.489 403.503 763.328 406.058C762.613 418.243 756.643 427.355 762.291 445.917C763.65 450.366 763.989 452.653 763.989 454.475C763.989 455.744 762.345 457.084 761.684 457.441C759.306 458.817 754.659 459.763 748.993 460.46H748.976C737.84 461.818 722.826 462.068 713.765 462.068C701.593 462.068 683.326 460.139 681.02 457.066C678.911 454.261 680.859 450.169 681.86 444.542C686.346 419.118 684.756 405.862 684.47 387.495C684.47 387.031 684.452 386.584 684.452 386.102C683.987 357.784 682.128 333.558 683.433 324.822C683.826 324.536 684.202 324.286 684.613 324C686.543 322.678 688.438 321.516 690.261 320.48C690.422 320.409 690.618 320.284 690.815 320.159C691.369 319.837 691.959 319.533 692.495 319.247C692.692 319.122 692.906 319.033 693.138 318.926C697.267 316.907 703.273 314.763 706.722 313.566C707.169 313.423 707.562 313.28 707.902 313.191C711.155 312.994 714.676 312.959 718.483 313.048C721.79 313.155 726.848 313.584 732.353 314.299C732.371 314.299 732.371 314.299 732.371 314.299C738.591 315.103 745.383 316.264 750.781 317.747C750.781 317.747 750.834 317.765 750.888 317.782C751.907 318.104 758.502 320.569 765.366 327.912C767.6 330.396 769.959 333.379 772.068 337.024Z" fill="#EDEDED"/>
<path d="M762.291 445.935C763.65 450.384 763.989 452.671 763.989 454.493C763.989 455.761 762.345 457.101 761.684 457.459C759.306 458.834 754.659 459.781 748.993 460.478C751.317 460.192 755.339 456.512 755.339 453.171C755.339 450.83 752.318 435.073 753.14 424.907C753.98 414.759 755.624 398.59 752.479 385.637C749.315 372.702 746.348 355.676 746.348 355.676L764.097 366.396C764.097 366.396 766.384 369.594 768.905 373.489C768.493 377.901 768.082 382.35 767.743 386.62C767.51 389.282 756.625 427.372 762.291 445.935Z" fill="#C7E5F2"/>
<path d="M684.202 262.201C684.202 262.201 685.739 280.746 691.887 281.997C698.036 283.247 696.534 275.368 696.534 275.368L695.676 266.561L684.202 262.201Z" fill="#002C54"/>
<path d="M712.585 329.449C700.538 328.02 705.042 316.317 706.687 313.62C707.133 313.477 709.189 312.851 709.35 312.744C709.368 312.726 709.386 312.726 709.386 312.726C709.779 312.405 710.083 311.922 710.315 311.333C711.495 308.242 710.958 302.096 710.905 301.703C710.905 301.685 710.905 301.685 710.905 301.685V300.577C711.101 299.845 711.298 299.148 711.459 298.487L717.786 293.503L731.191 282.962C731.191 282.962 727.634 300.577 730.494 311.69C730.709 312.53 731.156 313.709 732.264 314.352C732.264 314.37 732.282 314.352 732.282 314.352C732.639 314.584 733.086 314.745 733.622 314.835C736.947 316.371 732.371 331.789 712.585 329.449Z" fill="#E5918F"/>
<path d="M723.202 294.146C723.202 294.146 723.094 305.901 710.315 311.315C711.495 308.242 710.958 302.096 710.923 301.703L716.267 297.504L723.202 294.146Z" fill="#CC6362"/>
<path d="M687.151 264.845C687.151 264.845 689.939 303.347 700.341 306.616C700.341 306.616 713.586 307.867 723.095 295.075C725.829 291.394 729.297 290.555 730.423 286.106C732.264 278.87 734.855 265.542 731.549 257.502C726.848 246.068 687.598 236.974 687.151 264.845Z" fill="#E5918F"/>
<path d="M731.71 251.16C731.531 244.174 724.453 241.548 724.453 241.548C717.411 238.243 702.754 239.672 687.651 243.049C684.112 243.835 679.662 241.673 677.195 243.388C674.21 245.461 677.177 254.93 677.177 254.93C683.004 272.564 704.435 266.829 710.887 264.649C712.424 269.187 712.227 275.494 716.034 278.763C718.215 280.621 721.986 280.675 725.847 280.032C726.312 280.925 728.099 281.729 728.457 282.962C729.672 287.089 729.493 293.538 729.458 298.505L731.281 297.612C731.531 296.254 750.334 251.732 731.71 251.16Z" fill="#002C54"/>
<path d="M697.821 277.798C698.358 280.996 696.785 283.926 694.3 284.355C691.816 284.784 689.349 282.533 688.813 279.335C688.277 276.137 689.85 273.207 692.334 272.778C694.819 272.367 697.267 274.6 697.821 277.798Z" stroke="#3F3F3F" stroke-width="0.501" stroke-miterlimit="10"/>
<path d="M710.387 275.458C710.923 278.656 709.35 281.586 706.866 282.015C704.381 282.443 701.914 280.192 701.378 276.994C700.842 273.796 702.415 270.866 704.899 270.437C707.384 270.009 709.833 272.26 710.387 275.458Z" stroke="#3F3F3F" stroke-width="0.501" stroke-miterlimit="10"/>
<path d="M697.821 277.798C697.821 277.798 698.375 276.905 701.271 277.155" stroke="#3F3F3F" stroke-width="0.501" stroke-miterlimit="10"/>
<path d="M710.494 276.226L721.236 274.511" stroke="#3F3F3F" stroke-width="0.501" stroke-miterlimit="10"/>
<path d="M722.022 288.143C729.422 290.983 731.727 272.778 724.703 271.974C719.377 271.367 719.162 278.799 719.162 278.799C719.162 278.799 717.804 286.517 722.022 288.143Z" fill="#E5918F"/>
<g opacity="0.5">
<g opacity="0.5">
<path opacity="0.5" d="M724.471 274.707C723.291 276.065 722.791 277.548 722.648 279.12C722.541 279.906 722.63 280.71 722.648 281.55C722.737 282.372 722.827 283.23 722.898 284.123C722.612 283.766 722.415 283.372 722.165 282.997C721.969 282.586 721.808 282.175 721.665 281.747C721.414 280.871 721.271 279.96 721.361 279.013C721.45 278.084 721.736 277.137 722.29 276.369C722.809 275.565 723.577 274.94 724.471 274.707Z" fill="#CC6362"/>
</g>
<g opacity="0.5">
<path opacity="0.5" d="M725.615 278.156C724.828 278.281 724.096 278.656 723.595 279.174C723.077 279.692 722.773 280.353 722.648 281.032L721.432 280.603C721.843 279.799 722.451 279.085 723.22 278.656C723.953 278.227 724.828 278.084 725.615 278.156Z" fill="#CC6362"/>
</g>
</g>
<path d="M793.141 414.598C793.141 414.598 793.141 414.598 793.141 414.616C789.888 418.386 777.555 421.137 771.621 415.92C769.763 414.259 767.654 409.882 765.58 404.45C760.325 390.568 755.339 369.79 755.339 369.79L782.953 355.694C782.953 355.694 786.51 371.613 789.567 386.745C789.567 386.745 789.602 386.906 789.656 387.174C790.657 392.016 791.586 396.786 792.301 400.877C792.337 400.984 792.337 401.091 792.355 401.199C793.07 406.058 793.535 411.15 793.141 414.598Z" fill="#E5918F"/>
<path d="M744.9 350.459C747.564 361.536 755.946 382.547 755.946 382.547C761.809 383.511 769.691 382.439 776.215 380.099C783.74 377.401 789.12 371.72 789.12 371.72C789.12 371.72 783.561 356.105 778.574 344.885C774.106 334.809 771.407 331.057 769.477 329.056C766.563 326.001 761.845 322.499 758.52 320.909L744.9 350.459Z" fill="#EDEDED"/>
<path d="M779.825 357.695L763.632 350.709L750.87 317.836C750.87 317.836 753.212 318.551 756.286 319.783C756.286 319.783 756.286 319.783 756.304 319.783C756.357 319.819 756.5 319.855 756.715 319.944C756.786 319.98 756.876 319.998 756.947 320.051C759.7 321.338 770.37 327.627 777.77 350.477C777.823 350.674 777.895 350.87 777.949 351.049C778.735 353.675 779.307 355.801 779.629 356.891C779.664 356.998 779.682 357.105 779.718 357.213C779.736 357.391 779.772 357.552 779.825 357.695Z" fill="#EDEDED"/>
<path d="M793.141 414.598C793.141 414.598 793.141 414.598 793.141 414.616C792.909 416.635 792.355 418.082 791.354 418.6C791.193 418.707 788.923 420.047 788.762 420.155C785.384 422.209 779.271 425.729 771.657 428.998C753.194 436.966 726.365 446.221 711.906 450.455C711.906 450.455 710.476 446.364 708.242 442.112C708.242 442.112 721.325 436.037 734.176 426.193C747.045 416.367 765.58 404.432 765.58 404.432L770.263 398.93C770.263 398.93 786.885 383.636 789.566 386.709C789.566 386.709 789.602 386.87 789.656 387.138C790.049 388.728 791.372 394.606 792.301 400.841C792.337 400.949 792.337 401.056 792.355 401.163C793.07 406.058 793.534 411.15 793.141 414.598Z" fill="#E5918F"/>
<path d="M710.154 441.183C710.154 441.183 706.901 443.148 703.594 442.451C701.753 442.058 701.021 441.326 699.662 441.076C698.304 440.843 694.693 440.397 692.906 439.521C691.119 438.646 690.422 438.539 690.493 440.343C690.565 442.13 694.086 443.684 695.033 444.184C695.998 444.684 697.196 446.275 697.321 446.471C697.446 446.668 691.44 449.812 689.832 449.169C689.832 449.169 689.349 450.616 689.617 451.42C689.885 452.224 691.119 452.51 691.226 452.921C691.315 453.332 690.94 454.153 691.208 454.797C691.476 455.44 692.584 455.44 693.031 456.494C693.478 457.548 692.995 457.548 693.317 458.656C693.639 459.746 695.033 459.942 695.301 460.496C695.569 461.05 695.426 461.711 696.016 462.104C696.606 462.497 702.004 460.764 703.97 459.906C705.936 459.067 711.209 451.474 717.035 448.901L710.154 441.183Z" fill="#E5918F"/>
<path d="M737.751 475.021H695.748V470.912H737.751C738.877 470.912 739.806 471.823 739.806 472.966C739.806 474.11 738.877 475.021 737.751 475.021Z" fill="#375F84"/>
<path d="M715.016 475.021H609.865C608.614 475.021 607.506 474.181 607.166 472.966L585.647 395.517C585.164 393.802 586.469 392.105 588.238 392.105H689.921C692.298 392.105 694.372 393.677 694.997 395.964L716.446 473.127C716.714 474.092 715.999 475.021 715.016 475.021Z" fill="#375F84"/>
<path d="M711.209 475.021H606.058C604.807 475.021 603.699 474.181 603.359 472.966L581.84 395.517C581.357 393.802 582.662 392.105 584.431 392.105H686.114C688.491 392.105 690.565 393.677 691.19 395.964L712.639 473.127C712.907 474.092 712.192 475.021 711.209 475.021Z" fill="#003F82"/>
<path d="M294.45 424.978L306.64 412.49C306.64 412.49 307.068 406.916 307.73 405.755C308.391 404.575 310.107 400.234 310.965 399.752C311.823 399.269 313.521 399.752 313.521 399.752C313.521 399.752 315.219 399.18 315.97 399.18C316.72 399.18 318.15 399.877 318.15 399.877C318.15 399.877 319.973 399.752 320.724 399.752C321.475 399.752 321.725 399.966 321.725 399.966C321.725 399.966 324.656 396.589 326.086 395.446C327.516 394.302 329.679 392.212 330.322 392.23C330.93 392.23 331.198 393.302 330.751 394.445C330.304 395.589 328.374 397.411 328.374 397.411L322.833 405.826C322.833 405.826 323.78 405.451 324.281 405.129C324.781 404.808 328.177 401.645 328.374 401.52C328.57 401.395 330.09 400.377 330.983 401.395C331.877 402.414 325.174 410.418 324.102 411.507C323.03 412.579 316.881 415.706 316.881 415.706C316.881 415.706 310.375 427.39 309.75 428.141C309.124 428.891 294.45 424.978 294.45 424.978Z" fill="#E49191"/>
<path d="M305.907 367.361C305.907 367.361 299.097 406.755 292.698 407.666C292.698 407.666 267.139 408.702 261.437 377.687C256.504 350.799 276.308 345.064 285.585 347.118C294.843 349.191 307.909 350.531 305.907 367.361Z" fill="#E49191"/>
<path d="M283.315 401.377C283.315 401.377 279.74 406.201 278.471 417.886C278.471 417.886 267.818 419.404 258.006 414.348C258.006 414.348 263.296 397.858 263.94 379.956" fill="#E49191"/>
<path d="M276.111 340.544C262.134 343.634 263.26 352.335 263.26 352.335C256.718 353.961 255.306 356.659 255.36 368.718C255.414 380.796 259.775 395.285 262.188 396.464C264.601 397.643 278.256 397.697 279.4 397.286C280.544 396.875 285.316 385.798 284.208 383.851C283.1 381.903 284.262 374.239 287.443 373.953C290.625 373.667 289.999 378.598 289.999 378.598L292.609 378.026L294.628 373.078C313.092 374.167 317.864 353.139 317.864 353.139C313.431 350.245 290.071 337.453 276.111 340.544Z" fill="#002C54"/>
<path d="M121.004 607.247L135.124 609.284L130.442 625.774L115.142 621.915C115.142 621.915 108.922 613.482 118.323 607.247C118.788 606.961 120.271 607.086 121.004 607.247Z" fill="#E5918F"/>
<path d="M226.458 564.905L205.636 501.891C205.636 501.891 199.326 499.64 196.091 501.891C196.091 501.891 174.393 513.558 176.716 546.789C178.468 571.855 183.758 599.029 185.903 609.927L130.352 607.873C130.352 607.873 123.507 616.019 127.939 626.614C127.939 626.614 197.753 645.373 207.584 647.106C215.573 648.518 224.332 649.607 228.55 645.981C235.967 639.62 226.458 564.905 226.458 564.905Z" fill="#212121"/>
<path d="M186.779 607.247L200.899 609.284L196.216 625.774L180.917 621.915C180.917 621.915 174.697 613.482 184.098 607.247C184.563 606.961 186.046 607.086 186.779 607.247Z" fill="#E5918F"/>
<path d="M181.649 615.894C181.328 619.146 184.17 622.058 183.651 622.88C183.133 623.684 173.642 639.62 173.642 639.62C173.642 639.62 180.809 642.747 179.648 647.249H161.506C161.506 647.249 156.769 642.979 156.877 636.851C156.877 636.851 158.11 629.794 161.345 623.559C164.58 617.324 171.944 603.227 171.944 603.227C171.944 603.227 174.178 602.316 178.003 603.335C182.472 604.532 186.779 607.265 186.779 607.265C186.779 607.265 182.436 607.872 181.649 615.894Z" fill="#467CDB"/>
<path d="M327.105 632.76C322.619 616.037 280.437 544.663 266.174 525.385C236.861 512.665 205.636 501.874 205.636 501.874C192.713 504.964 186.35 530.977 193.678 548.325C198.701 560.224 230.587 590.167 250.123 607.801L195.931 607.73C195.931 607.73 189.55 617.27 195.341 626.328C195.341 626.328 285.459 646.802 293.36 647.964C301.26 649.125 319.008 647.964 319.008 647.964C319.008 647.964 330.876 646.838 327.105 632.76Z" fill="#2B2B2B"/>
<path d="M115.875 615.894C115.553 619.146 118.395 622.058 117.877 622.88C117.358 623.684 107.867 639.62 107.867 639.62C107.867 639.62 115.035 642.747 113.873 647.249H95.7312C95.7312 647.249 90.9947 642.979 91.1019 636.851C91.1019 636.851 92.3352 629.794 95.5703 623.559C98.8054 617.324 106.169 603.227 106.169 603.227C106.169 603.227 108.404 602.316 112.228 603.335C116.697 604.532 121.004 607.265 121.004 607.265C121.004 607.265 116.661 607.872 115.875 615.894Z" fill="#467CDB"/>
<path d="M394.953 412.847L365.891 463.944L345.068 443.202L327.838 468.839L332.842 471.233L331.037 472.734C331.037 472.734 371.199 492.279 376.025 487.974C380.833 483.668 403.264 418.654 403.264 418.654L394.953 412.847Z" fill="#E49191"/>
<path d="M348.768 446.471C348.768 446.471 343.28 469.608 332.306 480.577L304.227 469.893C304.227 469.893 291.197 491.797 278.453 508.591C273.556 515.077 271.929 524.206 266.174 525.403C265.816 525.278 265.477 525.171 265.119 525.082C249.516 520.401 226.494 525.367 207.495 518.31C186.511 510.503 190.586 506.108 190.586 506.108C190.586 506.108 203.312 483.186 210.533 458.906C213.75 448.168 215.985 438.217 217.468 430.445C220.131 416.689 231.159 405.933 245.065 404.057C245.226 404.039 245.369 404.004 245.53 403.986C261.437 401.967 303.083 406.88 311.179 410.346C319.276 413.812 348.768 446.471 348.768 446.471Z" fill="#003F82"/>
<path d="M304.227 469.893C304.227 469.893 291.197 491.797 278.453 508.591C273.556 515.077 271.929 524.206 266.174 525.403C268.694 524.51 272.876 511.253 274.36 508.27C275.861 505.304 278.239 502.32 283.386 491.904C288.516 481.471 295.487 466.177 295.487 466.177L304.227 469.893Z" fill="#193091"/>
<path d="M250.105 607.801C254.842 606.979 259.668 607.14 264.404 607.765C266.781 608.105 269.123 608.569 271.428 609.23C273.734 609.838 275.968 610.767 278.113 611.821L271.107 610.677C268.783 610.32 266.477 609.945 264.154 609.641C259.507 608.98 254.86 608.48 250.105 607.801Z" fill="black"/>
<path d="M416.669 394.052C416.205 393.999 413.22 396.393 411.79 397.572L413.452 394.392C413.452 394.392 415.651 392.284 416.437 391.122C417.223 389.961 416.812 388.8 416.187 388.746C415.758 388.71 413.13 390.783 411.611 392.016L411.951 391.372C411.951 391.372 414.149 389.264 414.936 388.103C415.722 386.942 415.311 385.78 414.685 385.709C414.06 385.655 409.019 389.872 409.019 389.872L406.571 393.159L408.43 389.568C408.43 389.568 409.413 388.371 410.056 387.085C410.7 385.78 410.235 385.387 409.877 384.959C409.52 384.53 406.124 387.049 405.248 388.067C404.39 389.086 401.638 393.177 401.423 393.749L398.581 399.609C398.403 397.911 398.117 394.999 397.92 393.141C397.634 390.479 395.203 389.836 395.132 391.14C395.042 392.444 393.702 398.823 394.006 402.289C394.31 405.755 394.899 408.024 395.114 409.971C395.328 411.918 393.309 415.813 393.309 415.813C393.309 415.813 401.405 420.833 402.728 419.333C404.068 417.832 406.91 414.491 408.287 412.24C410.181 409.149 411.45 405.094 411.45 405.094L413.97 399.698C413.97 399.698 416.169 397.59 416.955 396.429C417.706 395.267 417.295 394.106 416.669 394.052Z" fill="#E49191"/>
<path d="M880.936 231.329H786.081C780.004 231.329 775.071 236.26 775.071 242.334V264.738C775.071 270.348 779.271 274.975 784.687 275.654C785.473 275.762 786.081 276.423 786.081 277.227V289.483C786.081 290.197 786.993 290.483 787.404 289.911L797.073 276.405C797.377 275.976 797.86 275.744 798.378 275.744H880.936C887.013 275.744 891.947 270.813 891.947 264.738V242.334C891.929 236.26 887.013 231.329 880.936 231.329Z" stroke="#3F3F3F" stroke-width="0.8956" stroke-miterlimit="10"/>
<path d="M800.63 253.501C800.63 255.502 799.004 257.127 797.002 257.127C795 257.127 793.374 255.502 793.374 253.501C793.374 251.5 795 249.874 797.002 249.874C799.022 249.874 800.63 251.5 800.63 253.501Z" stroke="#3F3F3F" stroke-width="0.8956" stroke-miterlimit="10"/>
<path d="M818.879 253.501C818.879 255.502 817.253 257.127 815.251 257.127C813.249 257.127 811.623 255.502 811.623 253.501C811.623 251.5 813.249 249.874 815.251 249.874C817.253 249.874 818.879 251.5 818.879 253.501Z" stroke="#3F3F3F" stroke-width="0.8956" stroke-miterlimit="10"/>
<path d="M837.128 253.501C837.128 255.502 835.502 257.127 833.5 257.127C831.498 257.127 829.871 255.502 829.871 253.501C829.871 251.5 831.498 249.874 833.5 249.874C835.502 249.874 837.128 251.5 837.128 253.501Z" stroke="#3F3F3F" stroke-width="0.8956" stroke-miterlimit="10"/>
<path d="M855.377 253.501C855.377 255.502 853.751 257.127 851.749 257.127C849.747 257.127 848.12 255.502 848.12 253.501C848.12 251.5 849.747 249.874 851.749 249.874C853.751 249.874 855.377 251.5 855.377 253.501Z" stroke="#3F3F3F" stroke-width="0.8956" stroke-miterlimit="10"/>
<path d="M873.626 253.501C873.626 255.502 872 257.127 869.998 257.127C867.996 257.127 866.369 255.502 866.369 253.501C866.369 251.5 867.996 249.874 869.998 249.874C872 249.874 873.626 251.5 873.626 253.501Z" stroke="#3F3F3F" stroke-width="0.8956" stroke-miterlimit="10"/>
<path d="M131.496 329.52H226.334C232.411 329.52 237.344 334.451 237.344 340.526V362.93C237.344 368.54 233.143 373.167 227.728 373.846C226.941 373.953 226.334 374.614 226.334 375.418V387.674C226.334 388.389 225.422 388.675 225.011 388.103L215.341 374.596C215.037 374.167 214.555 373.935 214.037 373.935H131.496C125.419 373.935 120.486 369.004 120.486 362.93V340.526C120.486 334.433 125.401 329.52 131.496 329.52Z" stroke="#3F3F3F" stroke-width="0.8956" stroke-miterlimit="10"/>
<path d="M211.784 351.674C211.784 353.675 213.411 355.301 215.413 355.301C217.415 355.301 219.041 353.675 219.041 351.674C219.041 349.673 217.415 348.047 215.413 348.047C213.411 348.065 211.784 349.673 211.784 351.674Z" stroke="#3F3F3F" stroke-width="0.8956" stroke-miterlimit="10"/>
<path d="M193.535 351.674C193.535 353.675 195.162 355.301 197.164 355.301C199.166 355.301 200.792 353.675 200.792 351.674C200.792 349.673 199.166 348.047 197.164 348.047C195.162 348.065 193.535 349.673 193.535 351.674Z" stroke="#3F3F3F" stroke-width="0.8956" stroke-miterlimit="10"/>
<path d="M175.286 351.674C175.286 353.675 176.913 355.301 178.915 355.301C180.917 355.301 182.543 353.675 182.543 351.674C182.543 349.673 180.917 348.047 178.915 348.047C176.913 348.065 175.286 349.673 175.286 351.674Z" stroke="#3F3F3F" stroke-width="0.8956" stroke-miterlimit="10"/>
<path d="M157.038 351.674C157.038 353.675 158.664 355.301 160.666 355.301C162.668 355.301 164.294 353.675 164.294 351.674C164.294 349.673 162.668 348.047 160.666 348.047C158.664 348.065 157.038 349.673 157.038 351.674Z" stroke="#3F3F3F" stroke-width="0.8956" stroke-miterlimit="10"/>
<path d="M138.789 351.674C138.789 353.675 140.415 355.301 142.417 355.301C144.419 355.301 146.045 353.675 146.045 351.674C146.045 349.673 144.419 348.047 142.417 348.047C140.415 348.065 138.789 349.673 138.789 351.674Z" stroke="#3F3F3F" stroke-width="0.8956" stroke-miterlimit="10"/>
<path d="M704.274 179.66H531.4C521.874 179.66 514.134 171.942 514.134 162.402C514.134 152.879 521.856 145.143 531.4 145.143H704.274C713.8 145.143 721.54 152.861 721.54 162.402C721.54 171.942 713.818 179.66 704.274 179.66Z" fill="#EDEDED" stroke="#495AD6" stroke-width="0.8956" stroke-miterlimit="10"/>
<path d="M701.753 161.223C701.753 166.297 697.643 170.406 692.566 170.406C687.49 170.406 683.379 166.297 683.379 161.223C683.379 156.149 687.49 152.04 692.566 152.04C697.643 152.04 701.753 156.149 701.753 161.223Z" stroke="#495AD6" stroke-width="1.6716" stroke-miterlimit="10"/>
<path d="M699.054 167.708L704.131 172.764" stroke="#495AD6" stroke-width="1.6716" stroke-miterlimit="10" stroke-linecap="round"/>
<path d="M442.425 648.946H398.939C391.325 648.946 385.158 642.783 385.158 635.172V591.722C385.158 584.111 391.325 577.947 398.939 577.947H442.425C450.039 577.947 456.206 584.111 456.206 591.722V635.19C456.188 642.783 450.021 648.946 442.425 648.946Z" fill="#193091"/>
<path d="M429.467 648.946H385.98C378.366 648.946 372.2 642.783 372.2 635.172V591.722C372.2 584.111 378.366 577.947 385.98 577.947H429.467C437.081 577.947 443.248 584.111 443.248 591.722V635.19C443.248 642.783 437.081 648.946 429.467 648.946Z" fill="#495AD6"/>
<path d="M399.332 600.047L419.726 611.821C420.977 612.553 420.977 614.358 419.726 615.09L399.332 626.864C398.081 627.596 396.508 626.685 396.508 625.238V601.709C396.508 600.226 398.081 599.315 399.332 600.047Z" fill="#FF8401"/>
<path d="M892.268 648.946H835.412C825.475 648.946 817.396 640.889 817.396 630.937V574.106C817.396 564.172 825.457 556.097 835.412 556.097H892.268C902.206 556.097 910.285 564.154 910.285 574.106V630.937C910.285 640.889 902.206 648.946 892.268 648.946Z" fill="#193091"/>
<path d="M875.342 648.946H818.486C808.548 648.946 800.469 640.889 800.469 630.937V574.106C800.469 564.172 808.53 556.097 818.486 556.097H875.342C885.28 556.097 893.359 564.154 893.359 574.106V630.937C893.359 640.889 885.298 648.946 875.342 648.946Z" fill="#495AD6"/>
<path d="M858.076 578.894C858.076 585.058 853.089 590.042 846.923 590.042C840.756 590.042 835.77 585.04 835.77 578.894C835.77 572.73 840.774 567.745 846.923 567.745C853.071 567.745 858.076 572.748 858.076 578.894Z" fill="#EDEDED"/>
<path d="M870.176 616.663V633.135C870.176 634.618 868.961 635.833 867.477 635.833H826.35C824.867 635.833 823.651 634.618 823.651 633.135V616.663C823.651 603.817 834.072 593.419 846.905 593.419C859.756 593.419 870.176 603.817 870.176 616.663Z" fill="#EDEDED"/>
<path d="M639.232 199.545H602.716C601.197 199.545 599.963 198.313 599.963 196.794C599.963 195.275 601.197 194.043 602.716 194.043H639.232C640.751 194.043 641.984 195.275 641.984 196.794C641.966 198.313 640.751 199.545 639.232 199.545Z" fill="#EDEDED"/>
<path d="M675.765 199.545H649.348C647.829 199.545 646.595 198.313 646.595 196.794C646.595 195.275 647.829 194.043 649.348 194.043H675.765C677.284 194.043 678.518 195.275 678.518 196.794C678.5 198.313 677.267 199.545 675.765 199.545Z" fill="#EDEDED"/>
<path d="M618.23 211.605H602.716C601.197 211.605 599.963 210.372 599.963 208.853C599.963 207.335 601.197 206.102 602.716 206.102H618.23C619.749 206.102 620.983 207.335 620.983 208.853C620.983 210.372 619.749 211.605 618.23 211.605Z" fill="#EDEDED"/>
<path d="M675.765 211.605H627.453C625.934 211.605 624.7 210.372 624.7 208.853C624.7 207.335 625.934 206.102 627.453 206.102H675.765C677.285 206.102 678.518 207.335 678.518 208.853C678.5 210.372 677.267 211.605 675.765 211.605Z" fill="#EDEDED"/>
<path d="M650.849 223.664H602.716C601.197 223.664 599.963 222.432 599.963 220.913C599.963 219.394 601.197 218.162 602.716 218.162H650.849C652.369 218.162 653.602 219.394 653.602 220.913C653.584 222.432 652.369 223.664 650.849 223.664Z" fill="#EDEDED"/>
<path d="M675.765 223.664H660.251C658.732 223.664 657.498 222.432 657.498 220.913C657.498 219.394 658.732 218.162 660.251 218.162H675.765C677.284 218.162 678.518 219.394 678.518 220.913C678.5 222.432 677.267 223.664 675.765 223.664Z" fill="#EDEDED"/>
<path d="M176.859 479.666H49.4027C45.6313 479.666 42.575 476.611 42.575 472.841V408.524C42.575 404.754 45.6313 401.699 49.4027 401.699H176.877C180.649 401.699 183.705 404.754 183.705 408.524V472.841C183.705 476.611 180.649 479.666 176.859 479.666Z" fill="#193091"/>
<path d="M48.5625 412.222H177.699" stroke="#3F3F3F" stroke-width="0.8956" stroke-miterlimit="10" stroke-linecap="round"/>
<path d="M174.286 408.434C175.154 408.434 175.858 407.731 175.858 406.862C175.858 405.994 175.154 405.29 174.286 405.29C173.417 405.29 172.713 405.994 172.713 406.862C172.713 407.731 173.417 408.434 174.286 408.434Z" fill="#EDEDED"/>
<path d="M166.135 408.434C167.004 408.434 167.708 407.731 167.708 406.862C167.708 405.994 167.004 405.29 166.135 405.29C165.266 405.29 164.562 405.994 164.562 406.862C164.562 407.731 165.266 408.434 166.135 408.434Z" fill="#EDEDED"/>
<path d="M157.985 408.434C158.853 408.434 159.558 407.731 159.558 406.862C159.558 405.994 158.853 405.29 157.985 405.29C157.116 405.29 156.412 405.994 156.412 406.862C156.412 407.731 157.116 408.434 157.985 408.434Z" fill="#EDEDED"/>
<path d="M72.6382 422.709H50.7252C49.5277 422.709 48.5625 421.745 48.5625 420.548C48.5625 419.351 49.5277 418.386 50.7252 418.386H72.6382C73.8358 418.386 74.8009 419.351 74.8009 420.548C74.8009 421.745 73.8358 422.709 72.6382 422.709Z" fill="#6589D1"/>
<path d="M72.6382 432.696H50.7252C49.5277 432.696 48.5625 431.732 48.5625 430.535C48.5625 429.338 49.5277 428.373 50.7252 428.373H72.6382C73.8358 428.373 74.8009 429.338 74.8009 430.535C74.8009 431.732 73.8358 432.696 72.6382 432.696Z" fill="#6589D1"/>
<path d="M72.6382 442.666H50.7252C49.5277 442.666 48.5625 441.701 48.5625 440.504C48.5625 439.307 49.5277 438.342 50.7252 438.342H72.6382C73.8358 438.342 74.8009 439.307 74.8009 440.504C74.8009 441.701 73.8358 442.666 72.6382 442.666Z" fill="#6589D1"/>
<path d="M72.6382 452.635H50.7252C49.5277 452.635 48.5625 451.67 48.5625 450.473C48.5625 449.276 49.5277 448.311 50.7252 448.311H72.6382C73.8358 448.311 74.8009 449.276 74.8009 450.473C74.8009 451.67 73.8358 452.635 72.6382 452.635Z" fill="#6589D1"/>
<path d="M72.6382 462.622H50.7252C49.5277 462.622 48.5625 461.657 48.5625 460.46C48.5625 459.263 49.5277 458.298 50.7252 458.298H72.6382C73.8358 458.298 74.8009 459.263 74.8009 460.46C74.8009 461.657 73.8358 462.622 72.6382 462.622Z" fill="#6589D1"/>
<path d="M72.6382 472.591H50.7252C49.5277 472.591 48.5625 471.626 48.5625 470.429C48.5625 469.232 49.5277 468.268 50.7252 468.268H72.6382C73.8358 468.268 74.8009 469.232 74.8009 470.429C74.8009 471.626 73.8358 472.591 72.6382 472.591Z" fill="#6589D1"/>
<path d="M175.536 422.709H81.1102C79.9127 422.709 78.9475 421.745 78.9475 420.548C78.9475 419.351 79.9127 418.386 81.1102 418.386H175.536C176.734 418.386 177.699 419.351 177.699 420.548C177.699 421.745 176.734 422.709 175.536 422.709Z" fill="#3B5FB7"/>
<path d="M175.536 432.696H81.1102C79.9127 432.696 78.9475 431.732 78.9475 430.535C78.9475 429.338 79.9127 428.373 81.1102 428.373H175.536C176.734 428.373 177.699 429.338 177.699 430.535C177.699 431.732 176.734 432.696 175.536 432.696Z" fill="#3B5FB7"/>
<path d="M175.536 442.666H81.1102C79.9127 442.666 78.9475 441.701 78.9475 440.504C78.9475 439.307 79.9127 438.342 81.1102 438.342H175.536C176.734 438.342 177.699 439.307 177.699 440.504C177.699 441.701 176.734 442.666 175.536 442.666Z" fill="#3B5FB7"/>
<path d="M175.536 452.635H81.1102C79.9127 452.635 78.9475 451.67 78.9475 450.473C78.9475 449.276 79.9127 448.311 81.1102 448.311H175.536C176.734 448.311 177.699 449.276 177.699 450.473C177.699 451.67 176.734 452.635 175.536 452.635Z" fill="#3B5FB7"/>
<path d="M175.536 462.622H81.1102C79.9127 462.622 78.9475 461.657 78.9475 460.46C78.9475 459.263 79.9127 458.298 81.1102 458.298H175.536C176.734 458.298 177.699 459.263 177.699 460.46C177.699 461.657 176.734 462.622 175.536 462.622Z" fill="#3B5FB7"/>
<path d="M175.536 472.591H81.1102C79.9127 472.591 78.9475 471.626 78.9475 470.429C78.9475 469.232 79.9127 468.268 81.1102 468.268H175.536C176.734 468.268 177.699 469.232 177.699 470.429C177.699 471.626 176.734 472.591 175.536 472.591Z" fill="#3B5FB7"/>
<path d="M838.558 72.2959C846.036 41.1001 826.797 9.75188 795.588 2.27771C764.379 -5.19646 733.017 14.0337 725.54 45.2296C718.063 76.4254 737.301 107.774 768.51 115.248C799.719 122.722 831.081 103.492 838.558 72.2959Z" stroke="#DEE3FC" stroke-width="0.7896" stroke-miterlimit="10"/>
<path d="M802.492 104.977C828.003 93.6948 839.534 63.8768 828.248 38.3765C816.961 12.8761 787.13 1.34991 761.619 12.632C736.108 23.914 724.576 53.7321 735.863 79.2324C747.15 104.733 776.981 116.259 802.492 104.977Z" fill="#003F82"/>
<path d="M786.635 58.7791C786.635 61.3161 784.58 63.3707 782.042 63.3707C779.504 63.3707 777.448 61.3161 777.448 58.7791C777.448 56.2422 779.504 54.1876 782.042 54.1876C784.58 54.1876 786.635 56.2422 786.635 58.7791Z" fill="#EDEDED"/>
<path d="M781.541 57.8679C780.844 58.261 779.968 58.0109 779.593 57.3141L764.74 30.533C764.347 29.8362 764.597 28.9608 765.294 28.5856C765.991 28.1925 766.867 28.4426 767.242 29.1394L782.095 55.9205C782.488 56.6173 782.238 57.4927 781.541 57.8679Z" fill="#EDEDED"/>
<path d="M782.775 59.5116C783.329 58.9578 784.24 58.9578 784.812 59.5116L797.663 72.3573C798.217 72.9111 798.217 73.8223 797.663 74.394C797.109 74.9478 796.198 74.9478 795.626 74.394L782.775 61.5484C782.203 60.9766 782.203 60.0655 782.775 59.5116Z" fill="#EDEDED"/>
<path d="M782.346 18.3662V12.5598" stroke="#FF8401" stroke-width="2" stroke-miterlimit="10" stroke-linecap="round"/>
<path d="M822.472 59.0828H828.281" stroke="#FF8401" stroke-width="2" stroke-miterlimit="10" stroke-linecap="round"/>
<path d="M781.738 99.192V104.998" stroke="#FF8401" stroke-width="2" stroke-miterlimit="10" stroke-linecap="round"/>
<path d="M741.612 58.4754H735.803" stroke="#FF8401" stroke-width="2" stroke-miterlimit="10" stroke-linecap="round"/>
<g opacity="0.5">
<path opacity="0.5" d="M762.095 23.6189L759.181 18.5985" stroke="#DEE3FC" stroke-miterlimit="10" stroke-linecap="round"/>
<path opacity="0.5" d="M817.217 38.8407L822.24 35.9464" stroke="#DEE3FC" stroke-miterlimit="10" stroke-linecap="round"/>
<path opacity="0.5" d="M801.989 93.9394L804.884 98.9597" stroke="#DEE3FC" stroke-miterlimit="10" stroke-linecap="round"/>
<path opacity="0.5" d="M746.867 78.7176L741.844 81.6297" stroke="#DEE3FC" stroke-miterlimit="10" stroke-linecap="round"/>
</g>
<g opacity="0.5">
<path opacity="0.5" d="M747.188 38.3047L742.148 35.4104" stroke="#DEE3FC" stroke-miterlimit="10" stroke-linecap="round"/>
<path opacity="0.5" d="M802.525 23.9404L805.42 18.9022" stroke="#DEE3FC" stroke-miterlimit="10" stroke-linecap="round"/>
<path opacity="0.5" d="M816.895 79.2535L821.935 82.1478" stroke="#DEE3FC" stroke-miterlimit="10" stroke-linecap="round"/>
<path opacity="0.5" d="M761.559 93.6178L758.663 98.656" stroke="#DEE3FC" stroke-miterlimit="10" stroke-linecap="round"/>
</g>
<path d="M97.1967 331.789H33.4058C23.9686 331.789 16.3008 324.143 16.3008 314.692V250.928C16.3008 241.495 23.9507 233.83 33.4058 233.83H97.1967C106.634 233.83 114.302 241.477 114.302 250.928V314.692C114.302 324.143 106.652 331.789 97.1967 331.789Z" fill="#193091"/>
<path d="M92.9963 323.303H22.3956C14.835 323.303 8.68652 317.175 8.68652 309.6V239.029C8.68652 231.472 14.8172 225.326 22.3956 225.326H92.9963C100.557 225.326 106.705 231.454 106.705 239.029V309.6C106.705 317.175 100.575 323.303 92.9963 323.303Z" fill="#FF8401"/>
<path d="M74.6758 263.112H74.1574V257.503C74.1574 248.302 66.6684 240.798 57.4456 240.798C48.2228 240.798 40.7338 248.302 40.7338 257.503V263.112H40.6265C38.0349 263.112 35.9258 265.221 35.9258 267.811V288.947C35.9258 291.537 38.0349 293.645 40.6265 293.645H74.6758C77.2496 293.645 79.3587 291.537 79.3587 288.947V267.811C79.3587 265.221 77.2496 263.112 74.6758 263.112ZM60.3769 278.709C59.9837 278.942 59.7513 279.37 59.8764 279.817L60.8237 283.283C61.3778 285.356 59.8049 287.41 57.6601 287.41C55.4974 287.41 53.9245 285.356 54.4965 283.283L55.4438 279.781C55.551 279.353 55.3365 278.906 54.9433 278.692C53.0308 277.566 51.8512 275.297 52.3695 272.814C52.7985 270.759 54.5143 269.062 56.5698 268.651C60.073 267.954 63.1473 270.616 63.1473 273.993C63.1473 276.012 62.0391 277.78 60.3769 278.709ZM69.9214 263.112H44.9698V257.503C44.9698 250.624 50.5643 245.032 57.4456 245.032C64.3269 245.032 69.9214 250.624 69.9214 257.503V263.112Z" fill="#193091"/>
<path d="M77.3567 301.06H37.9454C36.8373 301.06 35.9436 300.166 35.9436 299.059C35.9436 297.951 36.8373 297.058 37.9454 297.058H77.3389C78.447 297.058 79.3407 297.951 79.3407 299.059C79.3586 300.149 78.4649 301.06 77.3567 301.06Z" fill="#193091"/>
<path d="M77.3567 307.867H37.9454C36.8373 307.867 35.9436 306.973 35.9436 305.866C35.9436 304.758 36.8373 303.865 37.9454 303.865H77.3389C78.447 303.865 79.3407 304.758 79.3407 305.866C79.3586 306.956 78.4649 307.867 77.3567 307.867Z" fill="#193091"/>
<path d="M863.742 466.195H826.189C820.631 466.195 816.126 461.693 816.126 456.137V418.6C816.126 413.044 820.631 408.542 826.189 408.542H863.742C869.301 408.542 873.805 413.044 873.805 418.6V456.137C873.805 461.693 869.301 466.195 863.742 466.195Z" fill="#193091"/>
<path d="M861.275 461.193H819.719C815.269 461.193 811.658 457.584 811.658 453.135V411.597C811.658 407.148 815.269 403.539 819.719 403.539H861.275C865.726 403.539 869.336 407.148 869.336 411.597V453.135C869.336 457.584 865.726 461.193 861.275 461.193Z" fill="#FF8401"/>
<path d="M828.835 449.58C828.674 449.58 828.513 449.562 828.352 449.508C827.405 449.24 826.851 448.258 827.119 447.311L835.841 416.438C836.109 415.491 837.11 414.938 838.04 415.206C838.987 415.474 839.541 416.456 839.273 417.403L830.551 448.276C830.318 449.062 829.603 449.58 828.835 449.58Z" fill="#003F82"/>
<path d="M843.42 449.58C843.259 449.58 843.098 449.562 842.937 449.508C841.99 449.24 841.436 448.258 841.704 447.311L850.426 416.438C850.694 415.491 851.695 414.938 852.625 415.206C853.572 415.474 854.126 416.456 853.858 417.403L845.136 448.276C844.921 449.062 844.206 449.58 843.42 449.58Z" fill="#003F82"/>
<path d="M855.931 427.14H825.046C824.063 427.14 823.258 426.336 823.258 425.354C823.258 424.371 824.063 423.567 825.046 423.567H855.931C856.914 423.567 857.719 424.371 857.719 425.354C857.719 426.336 856.914 427.14 855.931 427.14Z" fill="#003F82"/>
<path d="M855.931 441.254H825.046C824.063 441.254 823.258 440.45 823.258 439.468C823.258 438.485 824.063 437.681 825.046 437.681H855.931C856.914 437.681 857.719 438.485 857.719 439.468C857.719 440.45 856.914 441.254 855.931 441.254Z" fill="#003F82"/>
<path d="M167.208 282.997H144.866C143.507 282.997 142.417 281.907 142.417 280.55C142.417 279.192 143.507 278.102 144.866 278.102H167.208C168.566 278.102 169.656 279.192 169.656 280.55C169.656 281.89 168.548 282.997 167.208 282.997Z" fill="#F0F4FF"/>
<path d="M189.711 293.86H144.866C143.507 293.86 142.417 292.77 142.417 291.412C142.417 290.054 143.507 288.965 144.866 288.965H189.711C191.069 288.965 192.159 290.054 192.159 291.412C192.159 292.77 191.051 293.86 189.711 293.86Z" fill="#F0F4FF"/>
<path d="M150.156 304.722H144.866C143.507 304.722 142.417 303.633 142.417 302.275C142.417 300.917 143.507 299.827 144.866 299.827H150.156C151.515 299.827 152.605 300.917 152.605 302.275C152.605 303.633 151.515 304.722 150.156 304.722Z" fill="#F0F4FF"/>
<path d="M189.71 304.722H158.485C157.127 304.722 156.037 303.633 156.037 302.275C156.037 300.917 157.127 299.827 158.485 299.827H189.71C191.069 299.827 192.159 300.917 192.159 302.275C192.159 303.633 191.051 304.722 189.71 304.722Z" fill="#F0F4FF"/>
<path d="M189.71 282.997H176.162C174.804 282.997 173.714 281.907 173.714 280.55C173.714 279.192 174.804 278.102 176.162 278.102H189.71C191.069 278.102 192.159 279.192 192.159 280.55C192.159 281.89 191.051 282.997 189.71 282.997Z" fill="#F0F4FF"/>
<path d="M56.284 565.923C53.3706 565.923 50.6539 566.727 48.3124 568.103C47.383 559.759 40.305 553.292 31.7078 553.292C22.485 553.292 14.996 560.76 14.996 569.997C14.996 570.622 15.0318 571.229 15.1032 571.819C14.3347 571.676 13.5482 571.605 12.7439 571.605C5.70173 571.605 -0.0178223 577.322 -0.0178223 584.361C-0.0178223 591.4 5.70173 597.117 12.7439 597.117H56.2662C64.8812 597.117 71.8698 590.132 71.8698 581.52C71.8877 572.891 64.8991 565.923 56.284 565.923Z" fill="#EDEDED"/>
<path d="M25.3625 648.124H931.215" stroke="#3F3F3F" stroke-width="0.9839" stroke-miterlimit="10" stroke-linecap="round"/>
</g>
<defs>
<clipPath id="clip0_595_14703">
<rect width="950" height="649" fill="white"/>
</clipPath>
</defs>
</svg>
