<svg width="28" height="28" viewBox="0 0 28 28" fill="none" xmlns="http://www.w3.org/2000/svg">
<path d="M26.9427 14C26.9427 13.605 26.9222 13.2151 26.8876 12.8295H28C27.4364 6.00324 21.9968 0.563604 15.1704 0V1.11243C14.7845 1.07783 14.3946 1.05729 14 1.05729C13.6054 1.05729 13.2151 1.07783 12.8295 1.11243V0C6.00324 0.563604 0.563604 6.00324 0 12.8295H1.11243C1.07784 13.2155 1.05729 13.6054 1.05729 14C1.05729 14.395 1.07784 14.7849 1.11243 15.1704H0C0.563604 21.9968 6.00324 27.4364 12.8295 28V26.8876C13.2155 26.9222 13.6054 26.9427 14 26.9427C14.3946 26.9427 14.7849 26.9222 15.1704 26.8876V28C21.9968 27.4364 27.4364 21.9968 28 15.1704H26.8876C26.9222 14.7849 26.9427 14.395 26.9427 14Z" fill="#214284"/>
<path d="M13.9999 26.0828C7.33753 26.0828 1.91699 20.6622 1.91699 13.9999C1.91699 7.33753 7.33717 1.91699 13.9999 1.91699C20.6622 1.91699 26.0828 7.33753 26.0828 13.9999C26.0828 20.6622 20.6626 26.0828 13.9999 26.0828ZM13.9999 2.15123C7.46618 2.15123 2.15086 7.46654 2.15086 14.0002C2.15086 20.5339 7.46618 25.8492 13.9999 25.8492C20.5336 25.8492 25.8489 20.5339 25.8489 14.0002C25.8489 7.46654 20.5336 2.15123 13.9999 2.15123Z" fill="white"/>
<path d="M11.6757 16.4492L11.5684 18.9378L12.972 17.3705L11.6757 16.4492Z" fill="white"/>
<g clip-path="url(#clip0_1_22236)">
<path d="M11.0189 18.4188C11.0189 18.4813 10.9423 18.5313 10.8459 18.5313C10.7361 18.5406 10.6596 18.4906 10.6596 18.4188C10.6596 18.3563 10.7361 18.3063 10.8326 18.3063C10.9324 18.2969 11.0189 18.3469 11.0189 18.4188ZM9.98427 18.2781C9.96099 18.3406 10.0275 18.4125 10.1273 18.4313C10.2138 18.4625 10.3136 18.4313 10.3336 18.3688C10.3535 18.3063 10.2903 18.2344 10.1905 18.2063C10.104 18.1844 10.0076 18.2156 9.98427 18.2781ZM11.4546 18.225C11.3582 18.2469 11.2916 18.3063 11.3016 18.3781C11.3116 18.4406 11.3981 18.4813 11.4979 18.4594C11.5944 18.4375 11.6609 18.3781 11.6509 18.3156C11.6409 18.2563 11.5511 18.2156 11.4546 18.225ZM13.6435 6.25C9.02954 6.25 5.5 9.54063 5.5 13.875C5.5 17.3406 7.82198 20.3063 11.1386 21.35C11.5644 21.4219 11.7141 21.175 11.7141 20.9719C11.7141 20.7781 11.7041 19.7094 11.7041 19.0531C11.7041 19.0531 9.3755 19.5219 8.88649 18.1219C8.88649 18.1219 8.50726 17.2125 7.96169 16.9781C7.96169 16.9781 7.1999 16.4875 8.01492 16.4969C8.01492 16.4969 8.84325 16.5594 9.29899 17.3031C10.0275 18.5094 11.2484 18.1625 11.7241 17.9563C11.8006 17.4563 12.0168 17.1094 12.2564 16.9031C10.3968 16.7094 8.52056 16.4563 8.52056 13.45C8.52056 12.5906 8.77339 12.1594 9.30565 11.6094C9.21915 11.4063 8.93639 10.5688 9.39214 9.4875C10.0874 9.28438 11.6875 10.3313 11.6875 10.3313C12.3528 10.1563 13.068 10.0656 13.7766 10.0656C14.4852 10.0656 15.2004 10.1563 15.8657 10.3313C15.8657 10.3313 17.4658 9.28125 18.1611 9.4875C18.6168 10.5719 18.3341 11.4063 18.2476 11.6094C18.7798 12.1625 19.1058 12.5938 19.1058 13.45C19.1058 16.4656 17.1465 16.7063 15.2869 16.9031C15.5929 17.15 15.8524 17.6188 15.8524 18.3531C15.8524 19.4063 15.8424 20.7094 15.8424 20.9656C15.8424 21.1688 15.9955 21.4156 16.4179 21.3438C19.7446 20.3063 22 17.3406 22 13.875C22 9.54063 18.2576 6.25 13.6435 6.25ZM8.73347 17.0281C8.69022 17.0594 8.7002 17.1313 8.75675 17.1906C8.80998 17.2406 8.88649 17.2625 8.92974 17.2219C8.97298 17.1906 8.963 17.1188 8.90645 17.0594C8.85323 17.0094 8.77671 16.9875 8.73347 17.0281ZM8.37419 16.775C8.35091 16.8156 8.38417 16.8656 8.45071 16.8969C8.50393 16.9281 8.57046 16.9188 8.59375 16.875C8.61704 16.8344 8.58377 16.7844 8.51724 16.7531C8.45071 16.7344 8.39748 16.7438 8.37419 16.775ZM9.45202 17.8875C9.39879 17.9281 9.41875 18.0219 9.49526 18.0813C9.57177 18.1531 9.66825 18.1625 9.71149 18.1125C9.75474 18.0719 9.73478 17.9781 9.66825 17.9188C9.59506 17.8469 9.49526 17.8375 9.45202 17.8875ZM9.07278 17.4281C9.01956 17.4594 9.01956 17.5406 9.07278 17.6125C9.12601 17.6844 9.21583 17.7156 9.25907 17.6844C9.3123 17.6438 9.3123 17.5625 9.25907 17.4906C9.2125 17.4188 9.12601 17.3875 9.07278 17.4281Z" fill="white"/>
</g>
<defs>
<clipPath id="clip0_1_22236">
<rect width="16.5" height="16" fill="white" transform="translate(5.5 6)"/>
</clipPath>
</defs>
</svg>
