<svg width="28" height="28" viewBox="0 0 28 28" fill="none" xmlns="http://www.w3.org/2000/svg">
<path d="M26.9427 14C26.9427 13.605 26.9222 13.2151 26.8876 12.8295H28C27.4364 6.00324 21.9968 0.563604 15.1705 0V1.11243C14.7845 1.07783 14.3946 1.05729 14 1.05729C13.605 1.05729 13.2151 1.07783 12.8296 1.11243V0C6.00324 0.563604 0.563604 6.00324 0 12.8295H1.11243C1.07784 13.2155 1.0573 13.6054 1.0573 14C1.0573 14.395 1.07784 14.7849 1.11243 15.1704H0C0.563604 21.9968 6.00324 27.4364 12.8296 28V26.8876C13.2155 26.9222 13.6054 26.9427 14 26.9427C14.395 26.9427 14.7849 26.9222 15.1705 26.8876V28C21.9968 27.4364 27.4364 21.9968 28 15.1704H26.8876C26.9222 14.7849 26.9427 14.395 26.9427 14Z" fill="#214284"/>
<path d="M13.9999 26.0828C7.33753 26.0828 1.91699 20.6622 1.91699 13.9999C1.91699 7.33753 7.33753 1.91699 13.9999 1.91699C20.6622 1.91699 26.0828 7.33753 26.0828 13.9999C26.0828 20.6622 20.6622 26.0828 13.9999 26.0828ZM13.9999 2.15123C7.46618 2.15123 2.15087 7.46654 2.15087 14.0002C2.15087 20.5339 7.46618 25.8492 13.9999 25.8492C20.5336 25.8492 25.8489 20.5339 25.8489 14.0002C25.8489 7.46654 20.5332 2.15123 13.9999 2.15123Z" fill="white"/>
<path d="M21 14.1637C21 18.1577 18.2201 21 14.1148 21C10.1787 21 7 17.8726 7 14C7 10.1274 10.1787 7 14.1148 7C16.0311 7 17.6434 7.69153 18.8857 8.83185L16.9492 10.6637C14.416 8.25887 9.70533 10.0653 9.70533 14C9.70533 16.4415 11.6877 18.4202 14.1148 18.4202C16.932 18.4202 17.9877 16.4331 18.1541 15.4028H14.1148V12.9952H20.8881C20.9541 13.3536 21 13.698 21 14.1637Z" fill="white"/>
</svg>
