<svg width="28" height="28" viewBox="0 0 28 28" fill="none" xmlns="http://www.w3.org/2000/svg">
<path d="M26.9427 14C26.9427 13.605 26.9222 13.2151 26.8876 12.8295H28C27.4364 6.00324 21.9967 0.563604 15.1704 0V1.11243C14.7845 1.07784 14.3946 1.05729 14 1.05729C13.605 1.05729 13.2151 1.07784 12.8295 1.11243V0C6.00324 0.563604 0.563604 6.00324 0 12.8295H1.11243C1.07784 13.2155 1.05729 13.6054 1.05729 14C1.05729 14.395 1.07784 14.7849 1.11243 15.1704H0C0.563604 21.9967 6.00324 27.4364 12.8295 28V26.8876C13.2155 26.9222 13.6054 26.9427 14 26.9427C14.395 26.9427 14.7849 26.9222 15.1704 26.8876V28C21.9967 27.4364 27.4364 21.9967 28 15.1704H26.8876C26.9222 14.7845 26.9427 14.3946 26.9427 14Z" fill="#214284"/>
<path d="M13.9999 26.0828C7.33753 26.0828 1.91699 20.6622 1.91699 13.9999C1.91699 7.33753 7.33717 1.91699 13.9999 1.91699C20.6626 1.91699 26.0828 7.33753 26.0828 13.9999C26.0828 20.6622 20.6622 26.0828 13.9999 26.0828ZM13.9999 2.15086C7.46618 2.15086 2.15086 7.46618 2.15086 13.9999C2.15086 20.5336 7.46618 25.8489 13.9999 25.8489C20.5336 25.8489 25.8489 20.5336 25.8489 13.9999C25.8489 7.46618 20.5332 2.15086 13.9999 2.15086Z" fill="white"/>
<g clip-path="url(#clip0_1_22227)">
<path d="M20.0714 6.9375H8.92567C8.41496 6.9375 8 7.3623 8 7.88379V19.1162C8 19.6377 8.41496 20.0625 8.92567 20.0625H20.0714C20.5821 20.0625 21 19.6377 21 19.1162V7.88379C21 7.3623 20.5821 6.9375 20.0714 6.9375ZM11.929 18.1875H10.0022V11.9238H11.9319V18.1875H11.929ZM10.9656 11.0684C10.3475 11.0684 9.84844 10.5615 9.84844 9.94043C9.84844 9.31934 10.3475 8.8125 10.9656 8.8125C11.5808 8.8125 12.0828 9.31934 12.0828 9.94043C12.0828 10.5645 11.5837 11.0684 10.9656 11.0684ZM19.1516 18.1875H17.2248V15.1406C17.2248 14.4141 17.2103 13.4795 16.2237 13.4795C15.2196 13.4795 15.0658 14.2705 15.0658 15.0879V18.1875H13.1391V11.9238H14.9875V12.7793H15.0136C15.2719 12.2871 15.9016 11.7686 16.8388 11.7686C18.7888 11.7686 19.1516 13.0664 19.1516 14.7539V18.1875Z" fill="white"/>
</g>
<defs>
<clipPath id="clip0_1_22227">
<rect width="13" height="15" fill="white" transform="translate(8 6)"/>
</clipPath>
</defs>
</svg>
