<?xml version="1.0" standalone="no"?>
<!DOCTYPE svg PUBLIC "-//W3C//DTD SVG 20010904//EN"
 "http://www.w3.org/TR/2001/REC-SVG-20010904/DTD/svg10.dtd">
<svg version="1.0" xmlns="http://www.w3.org/2000/svg"
 width="633.000000pt" height="164.000000pt" viewBox="0 0 633.000000 164.000000"
 preserveAspectRatio="xMidYMid meet">

<g transform="translate(0.000000,164.000000) scale(0.100000,-0.100000)"
fill="#000000" stroke="none">
<path d="M4815 1580 c-187 -3 -346 -9 -353 -13 -6 -5 -19 -22 -28 -39 -13 -26
-14 -38 -5 -69 21 -71 8 -69 465 -69 351 0 408 -2 391 -14 -11 -7 -99 -54
-195 -104 -750 -389 -1543 -622 -2425 -714 -193 -20 -273 -23 -650 -23 -441 0
-562 6 -864 46 -267 35 -585 98 -841 167 -119 32 -155 29 -189 -14 -26 -33
-27 -70 -2 -111 22 -34 41 -41 250 -93 968 -239 2022 -261 2999 -65 633 128
1245 339 1780 616 85 43 155 79 157 79 2 0 -12 -33 -31 -74 -76 -167 -119
-333 -135 -531 -11 -127 -5 -203 17 -246 16 -31 32 -39 84 -39 30 0 44 6 64
31 24 29 26 37 26 137 0 348 124 660 366 921 73 79 84 96 84 127 0 46 -14 70
-50 89 -31 16 -163 17 -915 5z"/>
</g>
</svg>
